<svg width="48" height="48" viewBox="0 0 48 48" fill="none" xmlns="http://www.w3.org/2000/svg">
<path fill-rule="evenodd" clip-rule="evenodd" d="M39.9999 33.1434V10.2863C39.9999 9.07385 39.5182 7.91109 38.6609 7.05378C37.8036 6.19647 36.6409 5.71484 35.4284 5.71484H17.1427C15.9303 5.71484 14.7675 6.19647 13.9102 7.05378C13.0529 7.91109 12.5713 9.07385 12.5713 10.2863V33.1434C12.5713 34.3558 13.0529 35.5186 13.9102 36.3759C14.7675 37.2332 15.9303 37.7148 17.1427 37.7148H35.4284C36.6409 37.7148 37.8036 37.2332 38.6609 36.3759C39.5182 35.5186 39.9999 34.3558 39.9999 33.1434Z" stroke="#333333" stroke-width="2.28571" stroke-linecap="round" stroke-linejoin="round"/>
<path d="M12.1256 11.2812L7.54499 12.9498C6.40606 13.3647 5.47852 14.2148 4.9663 15.3134C4.45409 16.412 4.39915 17.669 4.81356 18.8081L12.6307 40.287C12.8361 40.8512 13.1506 41.3694 13.5563 41.812C13.962 42.2547 14.451 42.613 14.9952 42.8667C15.5394 43.1203 16.1283 43.2643 16.7281 43.2903C17.328 43.3163 17.9271 43.2239 18.4913 43.0184L31.2181 37.9944M19.4284 17.1441H30.857M19.4284 21.7155H33.1427M19.4284 26.287H26.2856" stroke="#333333" stroke-width="2.28571" stroke-linecap="round" stroke-linejoin="round"/>
</svg>
