<svg width="48" height="48" viewBox="0 0 48 48" fill="none" xmlns="http://www.w3.org/2000/svg">
<path d="M8 16C8 10.344 8 7.514 9.758 5.758C11.514 4 14.344 4 20 4H28C33.656 4 36.486 4 38.242 5.758C40 7.514 40 10.344 40 16V32C40 37.656 40 40.486 38.242 42.242C36.486 44 33.656 44 28 44H20C14.344 44 11.514 44 9.758 42.242C8 40.486 8 37.656 8 32V16Z" stroke="#333333" stroke-width="3"/>
<path d="M39.796 32H15.796C13.936 32 13.006 32 12.242 32.204C11.2246 32.4768 10.297 33.0126 9.55236 33.7576C8.80772 34.5026 8.27233 35.4305 8 36.448" stroke="#333333" stroke-width="3"/>
<path d="M16 14H32M16 21H26" stroke="#333333" stroke-width="3" stroke-linecap="round"/>
</svg>
