<svg width="48" height="48" viewBox="0 0 48 48" fill="none" xmlns="http://www.w3.org/2000/svg">
<path fill-rule="evenodd" clip-rule="evenodd" d="M26.3998 7.19922H23.9998C21.8713 7.1995 19.8032 7.9068 18.1203 9.21001C16.4374 10.5132 15.2351 12.3385 14.7022 14.3992H14.3998C11.8537 14.3992 9.41193 15.4106 7.61158 17.211C5.81123 19.0113 4.7998 21.4531 4.7998 23.9992C4.7998 26.5453 5.81123 28.9871 7.61158 30.7874C9.41193 32.5878 11.8537 33.5992 14.3998 33.5992H33.5998C35.9603 33.6027 38.2393 32.7363 40.0015 31.1656C41.7636 29.595 42.8853 27.4302 43.1522 25.0848C43.4191 22.7394 42.8126 20.3779 41.4485 18.4515C40.0844 16.525 38.0583 15.1687 35.7574 14.6416C35.2686 12.526 34.0773 10.6384 32.3778 9.28684C30.6784 7.93524 28.5712 7.19936 26.3998 7.19922ZM16.5622 16.7992L17.0254 14.9992C17.4253 13.4536 18.3273 12.0846 19.5897 11.1072C20.852 10.1298 22.4033 9.59937 23.9998 9.59922H26.3998C29.7718 9.59922 32.6734 11.9392 33.4174 15.1792L33.7534 16.6432L35.2174 16.9816C36.9383 17.3818 38.4521 18.4006 39.4708 19.8442C40.4895 21.2878 40.942 23.0555 40.7423 24.811C40.5425 26.5665 39.7045 28.1874 38.3875 29.3653C37.0706 30.5431 35.3666 31.1958 33.5998 31.1992H14.3998C12.4902 31.1992 10.6589 30.4407 9.30864 29.0904C7.95837 27.7401 7.1998 25.9088 7.1998 23.9992C7.1998 22.0897 7.95837 20.2583 9.30864 18.9081C10.6589 17.5578 12.4902 16.7992 14.3998 16.7992H16.5622Z" fill="#333333"/>
<path d="M24 23.9988C24 23.6806 24.1264 23.3753 24.3515 23.1503C24.5765 22.9253 24.8817 22.7988 25.2 22.7988C25.5183 22.7988 25.8235 22.9253 26.0485 23.1503C26.2736 23.3753 26.4 23.6806 26.4 23.9988V41.9988C26.4 42.3171 26.2736 42.6223 26.0485 42.8474C25.8235 43.0724 25.5183 43.1988 25.2 43.1988C24.8817 43.1988 24.5765 43.0724 24.3515 42.8474C24.1264 42.6223 24 42.3171 24 41.9988V23.9988Z" fill="#333333"/>
<path d="M30.4514 36.2638C30.7011 36.0827 31.011 36.0047 31.3167 36.046C31.6224 36.0872 31.9004 36.2447 32.0931 36.4855C32.2858 36.7264 32.3783 37.0322 32.3515 37.3395C32.3247 37.6468 32.1806 37.932 31.949 38.1358L25.949 42.9358C25.8272 43.0431 25.6848 43.1245 25.5306 43.1752C25.3764 43.2259 25.2134 43.2447 25.0517 43.2306C24.89 43.2165 24.7328 43.1697 24.5897 43.0931C24.4465 43.0164 24.3204 42.9116 24.219 42.7848C24.1176 42.658 24.043 42.512 23.9996 42.3555C23.9563 42.1991 23.9451 42.0354 23.9669 41.8745C23.9886 41.7137 24.0427 41.5589 24.126 41.4195C24.2093 41.2801 24.32 41.1591 24.4514 41.0638L30.4514 36.2638Z" fill="#333333"/>
<path d="M18.451 38.1358C18.2194 37.932 18.0753 37.6468 18.0485 37.3395C18.0217 37.0322 18.1142 36.7264 18.3069 36.4855C18.4996 36.2447 18.7777 36.0872 19.0833 36.046C19.389 36.0047 19.6989 36.0827 19.9486 36.2638L25.9486 41.0638C26.08 41.1591 26.1907 41.2801 26.274 41.4195C26.3573 41.5589 26.4114 41.7137 26.4332 41.8745C26.4549 42.0354 26.4437 42.1991 26.4004 42.3555C26.3571 42.512 26.2824 42.658 26.181 42.7848C26.0796 42.9116 25.9535 43.0164 25.8104 43.0931C25.6672 43.1697 25.51 43.2165 25.3483 43.2306C25.1866 43.2447 25.0236 43.2259 24.8694 43.1752C24.7152 43.1245 24.5728 43.0431 24.451 42.9358L18.451 38.1358Z" fill="#333333"/>
</svg>
