<svg width="48" height="48" viewBox="0 0 48 48" fill="none" xmlns="http://www.w3.org/2000/svg">
<path d="M4 38V18C4 16.9391 4.42143 15.9217 5.17157 15.1716C5.92172 14.4214 6.93913 14 8 14H9C9.62098 14 10.2334 13.8554 10.7889 13.5777C11.3443 13.3 11.8274 12.8968 12.2 12.4L16.64 6.48C16.7518 6.33096 16.8967 6.21 17.0633 6.12669C17.23 6.04337 17.4137 6 17.6 6H30.4C30.5863 6 30.77 6.04337 30.9367 6.12669C31.1033 6.21 31.2482 6.33096 31.36 6.48L35.8 12.4C36.1726 12.8968 36.6557 13.3 37.2111 13.5777C37.7666 13.8554 38.379 14 39 14H40C41.0609 14 42.0783 14.4214 42.8284 15.1716C43.5786 15.9217 44 16.9391 44 18V38C44 39.0609 43.5786 40.0783 42.8284 40.8284C42.0783 41.5786 41.0609 42 40 42H8C6.93913 42 5.92172 41.5786 5.17157 40.8284C4.42143 40.0783 4 39.0609 4 38Z" stroke="#333333" stroke-width="3" stroke-linecap="round" stroke-linejoin="round"/>
<path d="M24 34C26.1217 34 28.1566 33.1571 29.6569 31.6569C31.1571 30.1566 32 28.1217 32 26C32 23.8783 31.1571 21.8434 29.6569 20.3431C28.1566 18.8429 26.1217 18 24 18C21.8783 18 19.8434 18.8429 18.3431 20.3431C16.8429 21.8434 16 23.8783 16 26C16 28.1217 16.8429 30.1566 18.3431 31.6569C19.8434 33.1571 21.8783 34 24 34Z" stroke="#333333" stroke-width="3" stroke-linecap="round" stroke-linejoin="round"/>
</svg>
