<svg width="48" height="48" viewBox="0 0 48 48" fill="none" xmlns="http://www.w3.org/2000/svg">
<path d="M43.0612 10.938L37.0613 4.93798C36.9219 4.79851 36.7565 4.68787 36.5744 4.61239C36.3923 4.5369 36.1971 4.49805 36 4.49805C35.8029 4.49805 35.6077 4.5369 35.4256 4.61239C35.2435 4.68787 35.0781 4.79851 34.9387 4.93798L16.9387 22.938C16.7995 23.0774 16.6891 23.2429 16.6138 23.425C16.5385 23.607 16.4998 23.8022 16.5 23.9992V29.9992C16.5 30.3971 16.658 30.7786 16.9393 31.0599C17.2206 31.3412 17.6022 31.4992 18 31.4992H24C24.197 31.4994 24.3922 31.4607 24.5743 31.3854C24.7564 31.3101 24.9218 31.1997 25.0613 31.0605L43.0612 13.0605C43.2007 12.9212 43.3114 12.7557 43.3868 12.5736C43.4623 12.3915 43.5012 12.1964 43.5012 11.9992C43.5012 11.8021 43.4623 11.6069 43.3868 11.4248C43.3114 11.2427 43.2007 11.0773 43.0612 10.938ZM23.3794 28.4992H19.5V24.6199L31.5 12.6199L35.3794 16.4992L23.3794 28.4992ZM37.5 14.3786L33.6206 10.4992L36 8.11985L39.8794 11.9992L37.5 14.3786ZM42 22.4992V38.9992C42 39.7949 41.6839 40.5579 41.1213 41.1205C40.5587 41.6832 39.7957 41.9992 39 41.9992H9C8.20435 41.9992 7.44129 41.6832 6.87868 41.1205C6.31607 40.5579 6 39.7949 6 38.9992V8.99923C6 8.20358 6.31607 7.44052 6.87868 6.87791C7.44129 6.3153 8.20435 5.99923 9 5.99923H25.5C25.8978 5.99923 26.2794 6.15726 26.5607 6.43857C26.842 6.71987 27 7.1014 27 7.49923C27 7.89705 26.842 8.27858 26.5607 8.55989C26.2794 8.84119 25.8978 8.99923 25.5 8.99923H9V38.9992H39V22.4992C39 22.1014 39.158 21.7199 39.4393 21.4386C39.7206 21.1573 40.1022 20.9992 40.5 20.9992C40.8978 20.9992 41.2794 21.1573 41.5607 21.4386C41.842 21.7199 42 22.1014 42 22.4992Z" fill="#333333"/>
</svg>
