<svg width="32" height="32" viewBox="0 0 32 32" fill="none" xmlns="http://www.w3.org/2000/svg">
<path d="M11.9995 21.5601L7.37288 16.9334C7.12357 16.6841 6.78544 16.5441 6.43288 16.5441C6.08031 16.5441 5.74218 16.6841 5.49288 16.9334C5.24357 17.1827 5.10352 17.5209 5.10352 17.8734C5.10352 18.048 5.1379 18.2209 5.20471 18.3822C5.27151 18.5434 5.36943 18.69 5.49288 18.8134L11.0662 24.3868C11.5862 24.9068 12.4262 24.9068 12.9462 24.3868L27.0529 10.2801C27.3022 10.0308 27.4422 9.69267 27.4422 9.3401C27.4422 8.98753 27.3022 8.64941 27.0529 8.4001C26.8036 8.1508 26.4654 8.01074 26.1129 8.01074C25.7603 8.01074 25.4222 8.1508 25.1729 8.4001L11.9995 21.5601Z" fill="#7CDA2A"/>
</svg>
