<svg width="48" height="48" viewBox="0 0 48 48" fill="none" xmlns="http://www.w3.org/2000/svg">
<path d="M38.4601 30.52L33.3801 29.94C32.7828 29.8699 32.1773 29.936 31.6092 30.1334C31.0411 30.3309 30.5251 30.6545 30.1001 31.08L26.4201 34.76C20.7425 31.8725 16.1276 27.2576 13.2401 21.58L16.9401 17.88C17.8001 17.02 18.2201 15.82 18.0801 14.6L17.5001 9.56002C17.3867 8.58437 16.9185 7.68449 16.1846 7.03172C15.4506 6.37894 14.5023 6.01886 13.5201 6.02002H10.0601C7.80008 6.02002 5.92008 7.90002 6.06008 10.16C7.12008 27.24 20.7801 40.88 37.8401 41.94C40.1001 42.08 41.9801 40.2 41.9801 37.94V34.48C42.0001 32.46 40.4801 30.76 38.4601 30.52Z" fill="white"/>
</svg>
