<svg width="28" height="28" viewBox="0 0 28 28" fill="none" xmlns="http://www.w3.org/2000/svg">
<path d="M3.5 7.87499H15.9004C16.0814 8.38659 16.4166 8.82951 16.8598 9.14277C17.3029 9.45603 17.8323 9.62424 18.375 9.62424C18.9177 9.62424 19.4471 9.45603 19.8902 9.14277C20.3334 8.82951 20.6686 8.38659 20.8496 7.87499H24.5C24.7321 7.87499 24.9546 7.7828 25.1187 7.6187C25.2828 7.45461 25.375 7.23205 25.375 6.99999C25.375 6.76792 25.2828 6.54536 25.1187 6.38127C24.9546 6.21717 24.7321 6.12499 24.5 6.12499H20.8496C20.6686 5.61338 20.3334 5.17046 19.8902 4.8572C19.4471 4.54394 18.9177 4.37573 18.375 4.37573C17.8323 4.37573 17.3029 4.54394 16.8598 4.8572C16.4166 5.17046 16.0814 5.61338 15.9004 6.12499H3.5C3.26794 6.12499 3.04538 6.21717 2.88128 6.38127C2.71719 6.54536 2.625 6.76792 2.625 6.99999C2.625 7.23205 2.71719 7.45461 2.88128 7.6187C3.04538 7.7828 3.26794 7.87499 3.5 7.87499ZM24.5 20.125H20.8496C20.6686 19.6134 20.3334 19.1705 19.8902 18.8572C19.4471 18.5439 18.9177 18.3757 18.375 18.3757C17.8323 18.3757 17.3029 18.5439 16.8598 18.8572C16.4166 19.1705 16.0814 19.6134 15.9004 20.125H3.5C3.26794 20.125 3.04538 20.2172 2.88128 20.3813C2.71719 20.5454 2.625 20.7679 2.625 21C2.625 21.232 2.71719 21.4546 2.88128 21.6187C3.04538 21.7828 3.26794 21.875 3.5 21.875H15.9004C16.0814 22.3866 16.4166 22.8295 16.8598 23.1428C17.3029 23.456 17.8323 23.6242 18.375 23.6242C18.9177 23.6242 19.4471 23.456 19.8902 23.1428C20.3334 22.8295 20.6686 22.3866 20.8496 21.875H24.5C24.7321 21.875 24.9546 21.7828 25.1187 21.6187C25.2828 21.4546 25.375 21.232 25.375 21C25.375 20.7679 25.2828 20.5454 25.1187 20.3813C24.9546 20.2172 24.7321 20.125 24.5 20.125ZM24.5 13.125H12.0996C11.9186 12.6134 11.5834 12.1705 11.1402 11.8572C10.6971 11.5439 10.1677 11.3757 9.625 11.3757C9.0823 11.3757 8.55294 11.5439 8.10978 11.8572C7.66662 12.1705 7.33145 12.6134 7.15039 13.125H3.5C3.26794 13.125 3.04538 13.2172 2.88128 13.3813C2.71719 13.5454 2.625 13.7679 2.625 14C2.625 14.232 2.71719 14.4546 2.88128 14.6187C3.04538 14.7828 3.26794 14.875 3.5 14.875H7.15039C7.33145 15.3866 7.66662 15.8295 8.10978 16.1428C8.55294 16.456 9.0823 16.6242 9.625 16.6242C10.1677 16.6242 10.6971 16.456 11.1402 16.1428C11.5834 15.8295 11.9186 15.3866 12.0996 14.875H24.5C24.7321 14.875 24.9546 14.7828 25.1187 14.6187C25.2828 14.4546 25.375 14.232 25.375 14C25.375 13.7679 25.2828 13.5454 25.1187 13.3813C24.9546 13.2172 24.7321 13.125 24.5 13.125Z" fill="black"/>
</svg>
