<svg width="28" height="28" viewBox="0 0 28 28" fill="none" xmlns="http://www.w3.org/2000/svg">
<mask id="mask0_210_1234" style="mask-type:luminance" maskUnits="userSpaceOnUse" x="1" y="1" width="26" height="26">
<path d="M14.0007 25.6666C15.533 25.6686 17.0507 25.3677 18.4664 24.7813C19.8822 24.1948 21.168 23.3344 22.2502 22.2494C23.3351 21.1673 24.1956 19.8814 24.782 18.4657C25.3684 17.05 25.6693 15.5323 25.6673 13.9999C25.6693 12.4676 25.3684 10.9499 24.782 9.53418C24.1955 8.11845 23.3351 6.83257 22.2502 5.75043C21.168 4.66544 19.8822 3.80501 18.4664 3.21858C17.0507 2.63215 15.533 2.33128 14.0007 2.33326C12.4683 2.33131 10.9506 2.63219 9.53491 3.21862C8.11919 3.80505 6.83331 4.66547 5.75116 5.75043C4.6662 6.83257 3.80579 8.11845 3.21936 9.53418C2.63292 10.9499 2.33204 12.4676 2.33399 13.9999C2.33201 15.5323 2.63288 17.05 3.21931 18.4657C3.80574 19.8814 4.66618 21.1673 5.75116 22.2494C6.83331 23.3344 8.11919 24.1948 9.53491 24.7812C10.9506 25.3677 12.4683 25.6685 14.0007 25.6666Z" fill="white" stroke="white" stroke-width="2.33333" stroke-linejoin="round"/>
<path d="M9.33398 14L12.834 17.5L19.834 10.5" stroke="black" stroke-width="2.33333" stroke-linecap="round" stroke-linejoin="round"/>
</mask>
<g mask="url(#mask0_210_1234)">
<path d="M0 0H28V28H0V0Z" fill="black"/>
</g>
</svg>
