<svg width="18" height="28" viewBox="0 0 18 28" fill="none" xmlns="http://www.w3.org/2000/svg">
<g clip-path="url(#clip0_210_1249)">
<path d="M17.7031 16.2969C18.026 16.6094 18.099 16.9688 17.9219 17.375C17.7448 17.7917 17.4375 18 17 18H11.0312L14.1719 25.4375C14.276 25.6979 14.276 25.9531 14.1719 26.2031C14.0677 26.4531 13.8906 26.6354 13.6406 26.75L10.875 27.9219C10.6146 28.026 10.3594 28.026 10.1094 27.9219C9.85938 27.8177 9.67708 27.6406 9.5625 27.3906L6.57812 20.3281L1.70312 25.2031C1.50521 25.401 1.27083 25.5 1 25.5C0.875 25.5 0.75 25.474 0.625 25.4219C0.208333 25.2448 0 24.9375 0 24.5V1C0 0.5625 0.208333 0.255208 0.625 0.078125C0.75 0.0260417 0.875 0 1 0C1.28125 0 1.51562 0.0989583 1.70312 0.296875L17.7031 16.2969Z" fill="black"/>
</g>
<defs>
<clipPath id="clip0_210_1249">
<rect width="18" height="28" fill="white"/>
</clipPath>
</defs>
</svg>
