<svg width="36" height="36" viewBox="0 0 36 36" fill="none" xmlns="http://www.w3.org/2000/svg">
<path d="M2.53125 22.5C2.53235 20.7542 2.94989 19.0338 3.74919 17.4818C4.5485 15.9297 5.7065 14.5907 7.12708 13.5759C8.54765 12.5611 10.1898 11.8998 11.9172 11.6469C13.6446 11.394 15.4074 11.5569 17.0592 12.1219L25.2787 3.90375C25.4368 3.74547 25.6513 3.65645 25.875 3.65625L31.5 3.65625C31.7238 3.65625 31.9384 3.74515 32.0966 3.90338C32.2549 4.06161 32.3437 4.27622 32.3437 4.5L32.3437 10.125C32.3437 10.3488 32.2549 10.5634 32.0966 10.7216C31.9384 10.8799 31.7238 10.9688 31.5 10.9688L28.9687 10.9688L28.9687 13.5C28.9687 13.7238 28.8799 13.9384 28.7216 14.0966C28.5634 14.2549 28.3488 14.3438 28.125 14.3438L25.5937 14.3438L25.5937 16.875C25.5936 17.0987 25.5045 17.3132 25.3462 17.4713L23.8781 18.9408C24.3936 20.4474 24.5749 22.0482 24.4093 23.6319C24.2438 25.2157 23.7354 26.7444 22.9194 28.1118C22.1035 29.4793 20.9997 30.6527 19.6846 31.5505C18.3695 32.4483 16.8746 33.0491 15.3039 33.3109C13.7333 33.5728 12.1244 33.4896 10.5891 33.067C9.05385 32.6444 7.629 31.8926 6.41356 30.8639C5.19813 29.8351 4.22126 28.5541 3.55083 27.1097C2.88039 25.6654 2.53248 24.0924 2.53125 22.5ZM22.7812 22.5C22.7833 21.3235 22.5604 20.1574 22.1245 19.0645C22.0568 18.9091 22.0375 18.7369 22.0691 18.5703C22.1008 18.4038 22.1818 18.2506 22.3017 18.1308L23.9062 16.5248L23.9062 13.5C23.9062 13.2762 23.9951 13.0616 24.1534 12.9034C24.3116 12.7451 24.5262 12.6563 24.75 12.6563L27.2812 12.6563L27.2812 10.125C27.2812 9.90122 27.3701 9.68661 27.5284 9.52838C27.6866 9.37015 27.9012 9.28125 28.125 9.28125L30.6562 9.28125L30.6562 5.34375L26.2252 5.34375L17.8692 13.6983C17.7494 13.8182 17.5962 13.8992 17.4297 13.9309C17.2631 13.9625 17.0909 13.9432 16.9355 13.8755C15.0908 13.1405 13.0591 13.0164 11.1387 13.5216C9.2184 14.0268 7.5107 15.1346 6.26653 16.6821C5.02236 18.2297 4.30731 20.1355 4.22645 22.1195C4.14559 24.1036 4.70316 26.0612 5.81727 27.7049C6.93137 29.3486 8.54326 30.5916 10.4161 31.2514C12.289 31.9112 14.3241 31.9529 16.2224 31.3705C18.1208 30.788 19.7823 29.6121 20.9628 28.0155C22.1433 26.4188 22.7807 24.4857 22.7812 22.5ZM10.6875 26.7188C10.9656 26.7188 11.2375 26.6363 11.4688 26.4818C11.7 26.3272 11.8803 26.1076 11.9867 25.8506C12.0931 25.5937 12.121 25.3109 12.0667 25.0382C12.0125 24.7654 11.8785 24.5148 11.6819 24.3181C11.4852 24.1215 11.2346 23.9875 10.9618 23.9333C10.6891 23.879 10.4063 23.9069 10.1494 24.0133C9.89239 24.1197 9.67277 24.3 9.51824 24.5312C9.36372 24.7625 9.28125 25.0344 9.28125 25.3125C9.28125 25.6855 9.42941 26.0431 9.69313 26.3069C9.95685 26.5706 10.3145 26.7188 10.6875 26.7188Z" fill="#9AD15C"/>
</svg>
