<svg width="23" height="23" viewBox="0 0 23 23" fill="none" xmlns="http://www.w3.org/2000/svg">
<g clip-path="url(#clip0_19_10900)">
<path d="M5.94262 20.125H1.77028V6.68869H5.94262V20.125ZM3.85394 4.85588C2.51994 4.85588 1.4375 3.75044 1.4375 2.41644C1.4375 1.77556 1.69209 1.16093 2.14526 0.707758C2.59843 0.254588 3.21306 0 3.85394 0C4.49482 0 5.10945 0.254588 5.56262 0.707758C6.01579 1.16093 6.27037 1.77556 6.27037 2.41644C6.27037 3.75044 5.18794 4.85588 3.85394 4.85588ZM21.5582 20.125H17.3952V13.5844C17.3952 12.0254 17.3636 10.0266 15.226 10.0266C13.0568 10.0266 12.724 11.7199 12.724 13.4722V20.125H8.556V6.68869H12.5573V8.5215H12.6155C13.1725 7.46566 14.5331 6.35159 16.5629 6.35159C20.7855 6.35159 21.5618 9.13244 21.5618 12.7442V20.125H21.5582Z" fill="#C0C0C0"/>
</g>
<defs>
<clipPath id="clip0_19_10900">
<rect width="23" height="23" fill="white"/>
</clipPath>
</defs>
</svg>
