<svg width="32" height="32" viewBox="0 0 32 32" fill="none" xmlns="http://www.w3.org/2000/svg">
<path d="M12.667 20.7786V11.2212C12.6672 11.1016 12.6995 10.9843 12.7607 10.8815C12.8218 10.7788 12.9094 10.6943 13.0144 10.6371C13.1194 10.5798 13.2378 10.5518 13.3574 10.5561C13.4769 10.5603 13.593 10.5966 13.6937 10.6612L21.1283 15.4386C21.2225 15.4989 21.2999 15.5819 21.3536 15.68C21.4072 15.7781 21.4353 15.8881 21.4353 15.9999C21.4353 16.1117 21.4072 16.2217 21.3536 16.3198C21.2999 16.4179 21.2225 16.5009 21.1283 16.5612L13.6937 21.3399C13.593 21.4045 13.4769 21.4408 13.3574 21.445C13.2378 21.4493 13.1194 21.4213 13.0144 21.364C12.9094 21.3068 12.8218 21.2223 12.7607 21.1196C12.6995 21.0168 12.6672 20.8995 12.667 20.7799V20.7786Z" fill="#333333"/>
<path d="M1.33301 16.0002C1.33301 7.90016 7.89967 1.3335 15.9997 1.3335C24.0997 1.3335 30.6663 7.90016 30.6663 16.0002C30.6663 24.1002 24.0997 30.6668 15.9997 30.6668C7.89967 30.6668 1.33301 24.1002 1.33301 16.0002ZM15.9997 3.3335C12.6403 3.3335 9.41845 4.66802 7.04299 7.04348C4.66753 9.41894 3.33301 12.6408 3.33301 16.0002C3.33301 19.3596 4.66753 22.5814 7.04299 24.9568C9.41845 27.3323 12.6403 28.6668 15.9997 28.6668C19.3591 28.6668 22.5809 27.3323 24.9564 24.9568C27.3318 22.5814 28.6663 19.3596 28.6663 16.0002C28.6663 12.6408 27.3318 9.41894 24.9564 7.04348C22.5809 4.66802 19.3591 3.3335 15.9997 3.3335Z" fill="#333333"/>
</svg>
