<svg width="17" height="17" viewBox="0 0 17 17" fill="none" xmlns="http://www.w3.org/2000/svg">
<path d="M10.3912 2.17794C10.4807 2.13425 10.5806 2.11656 10.6796 2.12689C10.7786 2.13723 10.8727 2.17516 10.9512 2.23638L15.7324 5.95513C15.7941 6.00301 15.8444 6.06387 15.8799 6.13341C15.9153 6.20294 15.935 6.27942 15.9375 6.35743C15.9401 6.43543 15.9254 6.51304 15.8945 6.58472C15.8637 6.65641 15.8174 6.72042 15.759 6.77219L10.9777 11.0222C10.9012 11.0902 10.8066 11.1346 10.7054 11.1501C10.6041 11.1656 10.5006 11.1515 10.4072 11.1095C10.3138 11.0675 10.2345 10.9994 10.1789 10.9134C10.1233 10.8275 10.0937 10.7272 10.0938 10.6248V8.55932C9.843 8.60182 9.51575 8.67619 9.13325 8.80369C8.20569 9.11394 6.95088 9.73763 5.68863 11.0009C5.61139 11.0785 5.5121 11.1303 5.40433 11.1492C5.29655 11.1682 5.18555 11.1534 5.08649 11.1069C4.98743 11.0604 4.90515 10.9844 4.8509 10.8894C4.79664 10.7944 4.77306 10.6849 4.78337 10.5759C4.93531 8.90676 5.42194 7.68913 6.08387 6.81151C6.65201 6.05401 7.42409 5.47393 8.30981 5.13913C8.88107 4.92261 9.48338 4.79921 10.0938 4.77363V2.65607C10.0936 2.5565 10.1213 2.45888 10.1739 2.37435C10.2265 2.28981 10.3018 2.22175 10.3912 2.17794ZM2.125 5.84357C2.125 5.13909 2.40485 4.46346 2.903 3.96532C3.40114 3.46717 4.07677 3.18732 4.78125 3.18732H6.90625C7.04715 3.18732 7.18227 3.24329 7.2819 3.34292C7.38153 3.44255 7.4375 3.57767 7.4375 3.71857C7.4375 3.85947 7.38153 3.99459 7.2819 4.09422C7.18227 4.19385 7.04715 4.24982 6.90625 4.24982H4.78125C4.35856 4.24982 3.95318 4.41773 3.6543 4.71662C3.35541 5.0155 3.1875 5.42088 3.1875 5.84357V12.2186C3.1875 12.6413 3.35541 13.0466 3.6543 13.3455C3.95318 13.6444 4.35856 13.8123 4.78125 13.8123H11.1562C11.5789 13.8123 11.9843 13.6444 12.2832 13.3455C12.5821 13.0466 12.75 12.6413 12.75 12.2186V11.1561C12.75 11.0152 12.806 10.88 12.9056 10.7804C13.0052 10.6808 13.1404 10.6248 13.2812 10.6248C13.4221 10.6248 13.5573 10.6808 13.6569 10.7804C13.7565 10.88 13.8125 11.0152 13.8125 11.1561V12.2186C13.8125 12.923 13.5326 13.5987 13.0345 14.0968C12.5364 14.595 11.8607 14.8748 11.1562 14.8748H4.78125C4.07677 14.8748 3.40114 14.595 2.903 14.0968C2.40485 13.5987 2.125 12.923 2.125 12.2186V5.84357Z" fill="#666666"/>
</svg>
