<svg width="65" height="65" viewBox="0 0 65 65" fill="none" xmlns="http://www.w3.org/2000/svg">
<path d="M9.50195 58.3362C9.50195 52.208 9.50195 46.0797 9.50195 39.9516C9.60606 39.9596 9.71123 39.9603 9.81404 39.9765C14.9016 40.7791 19.9892 41.5821 25.0762 42.3872C25.7919 42.5004 26.5064 42.6233 27.2358 42.744C27.2358 44.2336 27.2324 45.6672 27.237 47.101C27.2401 48.1663 27.7365 48.6609 28.8018 48.6622C31.238 48.6648 33.6742 48.6645 36.1104 48.6622C37.1973 48.661 37.6817 48.1684 37.6844 47.0646C37.6875 45.7345 37.6925 44.4042 37.6795 43.0741C37.6766 42.7816 37.755 42.6699 38.0635 42.6188C42.6439 41.8615 47.2214 41.0868 51.7998 40.3184C52.9893 40.1187 54.1803 39.9256 55.3924 39.7258C55.4036 39.8351 55.4176 39.9071 55.4176 39.979C55.4185 45.9574 55.4212 51.9358 55.4148 57.914C55.4139 58.7564 54.8467 59.2978 53.997 59.3206C53.8626 59.3242 53.728 59.3215 53.5936 59.3215C39.4997 59.3215 25.4058 59.3168 11.3119 59.3333C10.4796 59.3343 9.86601 59.104 9.50195 58.3362Z" fill="black"/>
<path fill-rule="evenodd" clip-rule="evenodd" d="M9.50195 37.1714C9.50195 33.1357 9.50195 29.1 9.50195 25.0644C9.78629 24.3139 10.3316 24.0025 11.1305 24.0029C25.3573 24.0104 39.5843 24.0078 53.8111 24.0095C54.9146 24.0097 55.418 24.5261 55.4183 25.6393C55.4193 29.2706 55.4186 32.9021 55.4186 36.5335C55.4186 36.6795 55.4186 36.8254 55.4186 36.9636C55.224 37.0042 55.0789 37.0398 54.9316 37.0645C47.9836 38.2296 41.0355 39.3955 34.0868 40.5553C33.4863 40.6556 32.8626 40.8452 32.2782 40.7706C30.206 40.5059 28.146 40.1457 26.0818 39.8198C21.8207 39.1469 17.5594 38.4749 13.2989 37.798C12.032 37.5969 10.7675 37.3807 9.50195 37.1714Z" fill="black"/>
<path d="M35.0831 43.4453H29.6562V46.4263H35.0831V43.4453Z" fill="black"/>
<path d="M40.1276 19.674H24.6113V21.2791H40.1276V19.674Z" fill="black"/>
</svg>
