<svg width="65" height="65" viewBox="0 0 65 65" fill="none" xmlns="http://www.w3.org/2000/svg">
<path d="M33.0935 14.5425C40.1561 14.5425 47.2189 14.5425 54.2817 14.5425C54.2817 29.0635 54.2817 43.5845 54.2817 58.1056C39.7606 58.1056 25.2398 58.1056 10.7188 58.1056C10.7188 43.5845 10.7188 29.0636 10.7188 14.5425C17.7814 14.5425 24.8442 14.5425 31.9069 14.5425C31.8154 14.5709 31.7256 14.6087 31.6319 14.6266C29.1401 15.1056 27.4586 17.6501 28.0515 20.0887C28.4687 21.8028 29.5378 22.9659 31.2254 23.4661C32.9023 23.9633 34.4122 23.5568 35.6813 22.3506C37.6169 20.5107 37.4814 17.3668 35.436 15.6354C34.744 15.0497 33.9422 14.7609 33.0935 14.5425ZM32.5436 30.9846C32.3601 30.9846 32.1764 30.9846 31.9928 30.9846C28.6031 30.9846 25.2136 30.9829 21.824 30.9857C20.8905 30.9865 20.3898 31.4925 20.3821 32.4268C20.3792 32.7657 20.3805 33.1047 20.3807 33.4437C20.381 34.6073 20.8269 35.0525 21.9933 35.0526C28.9986 35.0528 36.0038 35.0528 43.009 35.0526C43.1221 35.0526 43.2352 35.0556 43.348 35.0505C44.0766 35.0172 44.5902 34.51 44.6157 33.7813C44.6301 33.3721 44.6202 32.9622 44.6198 32.5526C44.6187 31.4451 44.1592 30.985 43.0515 30.9848C39.5488 30.9842 36.0461 30.9846 32.5436 30.9846ZM17.0707 49.4634C17.0707 49.4629 17.0707 49.4625 17.0707 49.462C16.0405 49.462 15.0105 49.4526 13.9804 49.4641C12.1157 49.4848 10.8231 50.7827 10.805 52.6481C10.7967 53.5229 10.8131 54.3979 10.8034 55.2727C10.7961 55.9369 11.0762 56.395 11.6837 56.6793C15.277 58.3613 18.8654 58.3632 22.4594 56.6816C23.0646 56.3983 23.3541 55.9449 23.3466 55.2789C23.3372 54.4323 23.3481 53.5857 23.345 52.739C23.3376 50.7894 22.0299 49.4773 20.0765 49.4644C19.0746 49.458 18.0726 49.4634 17.0707 49.4634ZM54.1939 53.9254C54.195 53.9254 54.1959 53.9254 54.1969 53.9254C54.1969 53.5023 54.201 53.0788 54.1962 52.6556C54.1761 50.8261 52.8883 49.4942 51.0561 49.4704C48.9541 49.443 46.8512 49.4425 44.7489 49.4693C42.9757 49.4919 41.6977 50.7884 41.6593 52.5629C41.639 53.4939 41.656 54.4255 41.6566 55.3568C41.6571 55.9516 41.9238 56.3872 42.4589 56.6421C46.1 58.3767 49.744 58.3752 53.3866 56.6464C53.9221 56.3922 54.1924 55.96 54.1936 55.3648C54.1948 54.8851 54.1939 54.4051 54.1939 53.9254ZM32.5365 49.4608C32.5365 49.4617 32.5365 49.4627 32.5365 49.4636C31.4915 49.4636 30.4463 49.4523 29.4015 49.4661C27.5404 49.4908 26.2465 50.7985 26.2299 52.6619C26.2221 53.5374 26.2329 54.4129 26.2273 55.2884C26.2233 55.9352 26.5065 56.3929 27.092 56.6677C30.6841 58.3531 34.2767 58.3612 37.8757 56.6842C38.4832 56.4011 38.771 55.9441 38.7677 55.2813C38.7635 54.4199 38.7755 53.5585 38.7706 52.697C38.7599 50.8005 37.4352 49.4724 35.5443 49.4618C34.5419 49.4562 33.5391 49.4608 32.5365 49.4608ZM32.4389 48.3537C34.9481 48.386 37.0419 46.3344 37.0646 43.8212C37.087 41.342 35.0419 39.2674 32.5376 39.2284C30.0713 39.1901 27.9664 41.2546 27.9339 43.7437C27.9013 46.223 29.9523 48.3217 32.4389 48.3537ZM17.0783 48.3544C19.5665 48.351 21.6321 46.2867 21.6373 43.7982C21.6422 41.314 19.5835 39.2458 17.0886 39.2285C14.5993 39.2113 12.4964 41.3144 12.5088 43.8091C12.521 46.2976 14.592 48.3575 17.0783 48.3544ZM47.9446 48.3544C50.4284 48.3441 52.4946 46.2665 52.4895 43.7838C52.4845 41.3013 50.4087 39.2293 47.9261 39.2284C45.4257 39.2275 43.3375 41.3294 43.3609 43.8233C43.3845 46.3175 45.4554 48.3647 47.9446 48.3544ZM38.7457 28.424C38.8694 26.6272 38.0089 25.3182 36.4508 24.8933C36.262 24.8419 36.0626 24.8036 35.8679 24.803C33.6113 24.7966 31.3535 24.7542 29.0982 24.8124C27.2691 24.8595 25.8709 26.7204 26.2912 28.424C30.4332 28.424 34.5758 28.424 38.7457 28.424ZM36.1339 37.61C37.8181 38.72 38.9224 40.2106 39.3919 42.1595C39.8624 44.1125 39.494 45.9324 38.456 47.6613C39.4873 48.2951 40.2756 49.1182 40.7985 50.1891C40.8478 50.2902 41.0403 50.3214 41.1963 50.4C41.1963 46.0669 41.1963 41.8388 41.1963 37.61C39.4866 37.61 37.8102 37.61 36.1339 37.61ZM26.5248 47.6668C24.4298 44.3586 25.335 39.7771 28.9059 37.6255C27.1792 37.6255 25.486 37.6255 23.7886 37.6255C23.7886 41.8734 23.7886 46.0911 23.7886 50.4289C23.9743 50.3189 24.1562 50.2762 24.2078 50.1702C24.7233 49.1112 25.4926 48.2906 26.5248 47.6668ZM42.0773 28.4171C42.9602 28.4171 43.7739 28.4171 44.6198 28.4171C44.6198 27.5053 44.6101 26.6183 44.6237 25.7314C44.6311 25.2634 44.4765 24.8827 44.1448 24.5559C43.4306 23.852 42.7291 23.1349 42.0143 22.4316C41.421 21.8476 40.6543 21.8122 40.1304 22.3296C39.6047 22.849 39.6308 23.6224 40.2074 24.2137C40.7496 24.7699 41.3139 25.3052 41.8443 25.8723C41.9712 26.0079 42.0594 26.2312 42.0671 26.4182C42.0936 27.0775 42.0773 27.7385 42.0773 28.4171Z" fill="white"/>
<path fill-rule="evenodd" clip-rule="evenodd" d="M33.0929 14.5425C33.9417 14.7609 34.7435 15.0497 35.4355 15.6354C37.4809 17.3668 37.6164 20.5106 35.6808 22.3506C34.4117 23.5568 32.9019 23.9633 31.2249 23.4661C29.5373 22.9659 28.4682 21.8028 28.0511 20.0887C27.4581 17.6501 29.1396 15.1056 31.6314 14.6266C31.7251 14.6087 31.8149 14.5709 31.9064 14.5425C32.3018 14.5425 32.6973 14.5425 33.0929 14.5425Z" fill="black"/>
<path fill-rule="evenodd" clip-rule="evenodd" d="M32.5422 30.9846C36.0448 30.9846 39.5475 30.9842 43.0502 30.9847C44.1579 30.985 44.6174 31.445 44.6185 32.5526C44.6189 32.9621 44.6288 33.3721 44.6144 33.7813C44.5889 34.5099 44.0753 35.0172 43.3467 35.0504C43.2339 35.0555 43.1208 35.0525 43.0077 35.0525C36.0025 35.0527 28.9973 35.0528 21.992 35.0525C20.8256 35.0525 20.3797 34.6072 20.3794 33.4437C20.3792 33.1046 20.3778 32.7657 20.3807 32.4268C20.3885 31.4923 20.8892 30.9863 21.8227 30.9857C25.2123 30.9828 28.6018 30.9845 31.9915 30.9845C32.1751 30.9846 32.3587 30.9846 32.5422 30.9846Z" fill="black"/>
<path fill-rule="evenodd" clip-rule="evenodd" d="M14.526 49.4635C15.5279 49.4635 16.5298 49.458 17.5316 49.4647C19.4851 49.4775 20.7929 50.7896 20.8001 52.7392C20.8033 53.5858 20.7925 54.4325 20.8017 55.2791C20.8092 55.9452 20.5198 56.3986 19.9147 56.6818C16.3207 58.3635 12.7322 58.3616 9.13896 56.6796C8.53137 56.3951 8.25147 55.9371 8.25873 55.273C8.26829 54.3982 8.25185 53.5232 8.26034 52.6484C8.27837 50.783 9.57082 49.485 11.4355 49.4643C12.4656 49.4528 13.4958 49.4622 14.5259 49.4622C14.526 49.4626 14.526 49.4629 14.526 49.4635Z" fill="black"/>
<path fill-rule="evenodd" clip-rule="evenodd" d="M56.738 53.9254C56.738 54.4051 56.7387 54.885 56.7377 55.3648C56.7364 55.96 56.4661 56.3921 55.9306 56.6463C52.2881 58.3752 48.6439 58.3768 45.0027 56.6421C44.4678 56.3872 44.2009 55.9515 44.2006 55.3568C44.2 54.4254 44.1831 53.4939 44.2032 52.5629C44.2417 50.7884 45.5196 49.4919 47.293 49.4692C49.3951 49.4424 51.4981 49.443 53.6001 49.4704C55.4322 49.4942 56.72 50.826 56.74 52.6556C56.7448 53.0788 56.741 53.5023 56.741 53.9254C56.7399 53.9254 56.739 53.9254 56.738 53.9254Z" fill="black"/>
<path fill-rule="evenodd" clip-rule="evenodd" d="M32.5361 49.4608C33.5387 49.4608 34.5414 49.4561 35.5439 49.4618C37.4348 49.4724 38.7596 50.8005 38.7702 52.697C38.7751 53.5584 38.7631 54.4198 38.7673 55.2812C38.7706 55.9442 38.4828 56.401 37.8754 56.6841C34.2763 58.3611 30.6837 58.353 27.0916 56.6676C26.5061 56.3928 26.2229 55.9351 26.227 55.2884C26.2325 54.4129 26.2218 53.5374 26.2295 52.6618C26.2461 50.7985 27.54 49.4908 29.4011 49.4661C30.4459 49.4522 31.4911 49.4635 32.5361 49.4635C32.5361 49.4626 32.5361 49.4616 32.5361 49.4608Z" fill="black"/>
<path fill-rule="evenodd" clip-rule="evenodd" d="M32.439 48.3536C29.9525 48.3217 27.9014 46.2229 27.934 43.7437C27.9665 41.2546 30.0715 39.1901 32.5377 39.2284C35.042 39.2674 37.0871 41.342 37.0647 43.8212C37.0419 46.3344 34.9482 48.386 32.439 48.3536Z" fill="black"/>
<path fill-rule="evenodd" clip-rule="evenodd" d="M14.5344 48.3543C12.0482 48.3575 9.97713 46.2976 9.9649 43.809C9.95252 41.3143 12.0554 39.2113 14.5447 39.2284C17.0398 39.2457 19.0983 41.3139 19.0934 43.7981C19.0883 46.2867 17.0225 48.351 14.5344 48.3543Z" fill="black"/>
<path fill-rule="evenodd" clip-rule="evenodd" d="M50.4881 48.3544C47.9992 48.3647 45.928 46.3175 45.9045 43.8234C45.8809 41.3295 47.9693 39.2276 50.4697 39.2285C52.9523 39.2294 55.0281 41.3014 55.0331 43.7839C55.0382 46.2666 52.9721 48.3441 50.4881 48.3544Z" fill="black"/>
<path fill-rule="evenodd" clip-rule="evenodd" d="M38.7444 28.424C34.5745 28.424 30.432 28.424 26.29 28.424C25.8696 26.7204 27.2679 24.8595 29.097 24.8124C31.3522 24.7542 33.6101 24.7966 35.8667 24.803C36.0613 24.8036 36.2608 24.8419 36.4496 24.8933C38.0078 25.3182 38.8682 26.6272 38.7444 28.424Z" fill="black"/>
<path fill-rule="evenodd" clip-rule="evenodd" d="M36.1328 37.6101C38.5259 37.6101 40.9189 37.6101 43.3598 37.6101C43.3598 41.8389 43.3598 46.067 43.3598 50.4001C43.1372 50.3215 42.8625 50.2903 42.7919 50.1892C42.0453 49.1182 40.92 48.2952 39.4479 47.6613C40.9299 45.9324 41.4557 44.1125 40.784 42.1596C40.1137 40.2107 38.5372 38.72 36.1328 37.6101Z" fill="black"/>
<path fill-rule="evenodd" clip-rule="evenodd" d="M25.5231 47.6668C24.057 48.2905 22.9643 49.1112 22.2321 50.1702C22.1588 50.2762 21.9005 50.3188 21.6367 50.4289C21.6367 46.0911 21.6367 41.8734 21.6367 37.6255C24.0477 37.6255 26.4527 37.6255 28.9054 37.6255C23.8329 39.7771 22.5474 44.3586 25.5231 47.6668Z" fill="black"/>
<path fill-rule="evenodd" clip-rule="evenodd" d="M42.4276 28.4171C42.4276 27.7385 42.4415 27.0775 42.4185 26.4183C42.4121 26.2314 42.3359 26.0081 42.2266 25.8724C41.7689 25.3053 41.2823 24.77 40.8143 24.2138C40.317 23.6224 40.2945 22.8491 40.7479 22.3297C41.2001 21.8123 41.8614 21.8477 42.3731 22.4317C42.9897 23.135 43.5948 23.8521 44.2111 24.556C44.4971 24.8828 44.6303 25.2635 44.624 25.7314C44.6124 26.6184 44.6207 27.5054 44.6207 28.4171C43.8911 28.4171 43.1891 28.4171 42.4276 28.4171Z" fill="black"/>
<path fill-rule="evenodd" clip-rule="evenodd" d="M41.1268 25.1916C39.8404 25.1969 38.77 24.139 38.7579 22.85C38.7457 21.561 39.825 20.4748 41.1172 20.4753C42.4004 20.4757 43.473 21.5467 43.4756 22.8295C43.4783 24.1127 42.4105 25.1863 41.1268 25.1916Z" fill="black"/>
</svg>
