<svg width="65" height="65" viewBox="0 0 65 65" fill="none" xmlns="http://www.w3.org/2000/svg">
<path d="M30.6051 33.8019C30.6051 34.2988 30.2023 34.7016 29.7054 34.7016H11.7844C11.2876 34.7016 10.8848 34.2988 10.8848 33.8019V15.881C10.8848 15.3841 11.2876 14.9813 11.7844 14.9813H29.7054C30.2023 14.9813 30.6051 15.3841 30.6051 15.881V33.8019Z" fill="black"/>
<path d="M54.1481 33.8019C54.1481 34.2988 53.7452 34.7016 53.2483 34.7016H35.3275C34.8305 34.7016 34.4277 34.2988 34.4277 33.8019V15.881C34.4277 15.3841 34.8305 14.9813 35.3275 14.9813H53.2483C53.7452 14.9813 54.1481 15.3841 54.1481 15.881V33.8019Z" fill="black"/>
<path d="M30.6051 57.2675C30.6051 57.7643 30.2023 58.1671 29.7054 58.1671H11.7844C11.2876 58.1671 10.8848 57.7643 10.8848 57.2675V39.3465C10.8848 38.8497 11.2876 38.4469 11.7844 38.4469H29.7054C30.2023 38.4469 30.6051 38.8497 30.6051 39.3465V57.2675Z" fill="black"/>
<path d="M54.1481 57.2674C54.1481 57.7643 53.7452 58.1671 53.2483 58.1671H35.3275C34.8305 58.1671 34.4277 57.7643 34.4277 57.2674V39.3466C34.4277 38.8497 34.8305 38.4469 35.3275 38.4469H53.2483C53.7452 38.4469 54.1481 38.8497 54.1481 39.3466V57.2674Z" fill="black"/>
</svg>
