<svg width="65" height="65" viewBox="0 0 65 65" fill="none" xmlns="http://www.w3.org/2000/svg">
<path d="M34.0977 45.506C36.7967 45.1831 40.5882 42.2499 40.3727 37.4193C40.217 33.9264 36.8667 30.0896 34.0977 30.2297C34.0977 35.3207 34.0977 40.4122 34.0977 45.506Z" fill="white"/>
<path d="M30.905 30.1882C28.0022 30.6171 24.4819 33.5823 24.6253 38.1577C24.7369 41.7177 27.8187 45.3395 30.905 45.5012C30.905 40.4091 30.905 35.3179 30.905 30.1882Z" fill="white"/>
<path fill-rule="evenodd" clip-rule="evenodd" d="M5.59961 29.9724C7.67826 29.9724 9.75699 29.9724 11.87 29.9724C11.87 35.2253 11.87 40.4446 11.87 45.7348C9.78206 45.7348 7.6908 45.7348 5.59961 45.7348C5.59961 44.6839 5.59961 43.6331 5.59961 42.5823C6.6405 42.5823 7.68139 42.5823 8.71785 42.5823C8.71785 39.3936 8.71785 36.2762 8.71785 33.125C7.65587 33.125 6.62774 33.125 5.59961 33.125C5.59961 32.0741 5.59961 31.0232 5.59961 29.9724Z" fill="white"/>
<path fill-rule="evenodd" clip-rule="evenodd" d="M59.4014 45.7348C57.3227 45.7348 55.244 45.7348 53.1309 45.7348C53.1309 40.4819 53.1309 35.2626 53.1309 29.9724C55.2188 29.9724 57.3102 29.9724 59.4014 29.9724C59.4014 31.0232 59.4014 32.0741 59.4014 33.1249C58.3605 33.1249 57.3196 33.1249 56.283 33.1249C56.283 36.3135 56.283 39.431 56.283 42.5822C57.3451 42.5822 58.3732 42.5822 59.4014 42.5822C59.4014 43.6331 59.4014 44.6839 59.4014 45.7348Z" fill="white"/>
<path fill-rule="evenodd" clip-rule="evenodd" d="M59.4017 58.3447C50.9818 58.3447 42.5618 58.3447 34.1094 58.3447C34.1094 55.1299 34.1094 51.9527 34.1094 48.7377C37.2735 48.1903 39.8236 46.6413 41.6484 43.9784C43.0407 41.9466 43.657 39.677 43.5161 37.2226C43.2337 32.303 39.6402 27.8986 34.1144 26.965C34.1144 23.7937 34.1144 20.6154 34.1144 17.3624C42.537 17.3624 50.9693 17.3624 59.4018 17.3624C59.4018 21.5657 59.4018 25.769 59.4018 29.9724C57.3106 29.9724 55.2193 29.9724 53.1313 29.9724C53.1313 35.2625 53.1313 40.4819 53.1313 45.7347C55.2444 45.7347 57.3232 45.7347 59.4018 45.7347C59.4017 49.9381 59.4017 54.1414 59.4017 58.3447Z" fill="black"/>
<path fill-rule="evenodd" clip-rule="evenodd" d="M59.4015 42.5823C58.3734 42.5823 57.3453 42.5823 56.2832 42.5823C56.2832 39.431 56.2832 36.3136 56.2832 33.125C57.3197 33.125 58.3606 33.125 59.4015 33.125C59.4015 36.2773 59.4015 39.4298 59.4015 42.5823Z" fill="black"/>
<path fill-rule="evenodd" clip-rule="evenodd" d="M34.0977 45.5059C34.0977 40.412 34.0977 35.3206 34.0977 30.2297C36.8667 30.0896 40.217 33.9263 40.3727 37.4193C40.5882 42.2499 36.7966 45.1831 34.0977 45.5059Z" fill="black"/>
<path fill-rule="evenodd" clip-rule="evenodd" d="M5.59961 17.3625C14.0196 17.3625 22.4396 17.3625 30.892 17.3625C30.892 20.5775 30.892 23.7547 30.892 26.9689C27.7273 27.5159 25.1781 29.0667 23.3523 31.7276C21.959 33.7584 21.3438 36.0285 21.4843 38.4829C21.7646 43.3799 25.3352 47.7906 30.8869 48.742C30.8869 51.9134 30.8869 55.0917 30.8869 58.3448C22.4645 58.3448 14.032 58.3448 5.59961 58.3448C5.59961 54.1415 5.59961 49.9383 5.59961 45.7349C7.6908 45.7349 9.78206 45.7349 11.87 45.7349C11.87 40.4447 11.87 35.2253 11.87 29.9725C9.75691 29.9725 7.67826 29.9725 5.59961 29.9725C5.59961 25.7692 5.59961 21.5659 5.59961 17.3625Z" fill="black"/>
<path fill-rule="evenodd" clip-rule="evenodd" d="M5.59961 33.125C6.62774 33.125 7.65587 33.125 8.71785 33.125C8.71785 36.2763 8.71785 39.3937 8.71785 42.5823C7.68139 42.5823 6.6405 42.5823 5.59961 42.5823C5.59961 39.4299 5.59961 36.2774 5.59961 33.125Z" fill="black"/>
<path fill-rule="evenodd" clip-rule="evenodd" d="M30.905 30.1882C30.905 35.3179 30.905 40.4091 30.905 45.5012C27.8188 45.3395 24.7369 41.7177 24.6253 38.1577C24.4819 33.5823 28.0022 30.6171 30.905 30.1882Z" fill="black"/>
</svg>
