<svg width="65" height="65" viewBox="0 0 65 65" fill="none" xmlns="http://www.w3.org/2000/svg">
<path d="M31.024 58.8975C31.024 59.2751 30.7179 59.5812 30.3403 59.5812H4.87902C4.50143 59.5812 4.19531 59.2751 4.19531 58.8975V25.4869C4.19531 25.1093 4.50143 24.8032 4.87902 24.8032H30.3402C30.7178 24.8032 31.0239 25.1093 31.0239 25.4869L31.024 58.8975Z" fill="black" stroke="black" stroke-miterlimit="10" stroke-linecap="round" stroke-linejoin="round"/>
<path d="M28.7051 36.3661C28.4845 36.1568 27.8547 36.0437 27.7737 36.0437L24.9089 36.0366L24.9254 27.2763C24.9254 27.1885 24.9321 26.9818 24.7033 26.8102C24.563 26.7048 24.1624 26.6479 24.1108 26.6479L11.1465 26.6224C11.0435 26.6224 10.799 26.6546 10.554 26.8616C10.3414 27.0415 10.3859 27.219 10.3859 27.2776V36.0004L7.41124 35.9931C7.24927 35.9931 6.81008 36.057 6.42492 36.4683C6.09036 36.8257 6.10557 37.1784 6.10557 37.2948V56.3818C6.10557 56.4736 6.14288 56.9518 6.44777 57.2417C6.69558 57.4774 7.18767 57.6701 7.3838 57.6701H27.7732C27.9351 57.6701 28.4662 57.5098 28.7414 57.1903C28.9877 56.9046 29.0262 56.4891 29.0262 56.3728L29.0547 37.2883C29.0546 37.114 29.0648 36.7072 28.7051 36.3661Z" fill="white" stroke="white" stroke-miterlimit="10" stroke-linecap="round" stroke-linejoin="round"/>
<path d="M17.6092 53.38C21.2065 53.38 24.1227 50.4638 24.1227 46.8665C24.1227 43.2692 21.2065 40.353 17.6092 40.353C14.0119 40.353 11.0957 43.2692 11.0957 46.8665C11.0957 50.4638 14.0119 53.38 17.6092 53.38Z" fill="black" stroke="white" stroke-miterlimit="10" stroke-linecap="round" stroke-linejoin="round"/>
<path d="M17.604 33.708C18.1447 33.708 18.583 33.2697 18.583 32.729C18.583 32.1883 18.1447 31.75 17.604 31.75C17.0633 31.75 16.625 32.1883 16.625 32.729C16.625 33.2697 17.0633 33.708 17.604 33.708Z" fill="black" stroke="white" stroke-miterlimit="10" stroke-linecap="round" stroke-linejoin="round"/>
<path d="M11.4941 36.0392H23.7238" stroke="black" stroke-width="13" stroke-miterlimit="10" stroke-linecap="round" stroke-linejoin="round"/>
<path d="M61.5988 58.8925C61.5988 59.2729 61.2906 59.5811 60.9102 59.5811H35.3058C34.9255 59.5811 34.6172 59.2729 34.6172 58.8925V25.186C34.6172 24.8057 34.9255 24.4974 35.3058 24.4974H60.9102C61.2905 24.4974 61.5988 24.8057 61.5988 25.186V58.8925H61.5988Z" fill="black" stroke="black" stroke-miterlimit="10" stroke-linecap="round" stroke-linejoin="round"/>
<path d="M59.3019 36.2001C59.0798 35.9895 58.4454 35.8756 58.3638 35.8756L55.4787 35.8684L55.4952 27.0456C55.4952 26.9571 55.502 26.749 55.2715 26.576C55.1301 26.4699 54.7268 26.4127 54.6748 26.4127L41.6179 26.3871C41.5142 26.3871 41.2841 26.4195 41.0373 26.6279C40.8231 26.8091 40.8841 26.9879 40.8841 27.0468V35.8319L37.8721 35.8246C37.709 35.8246 37.2516 35.889 36.8638 36.3032C36.5269 36.6631 36.5273 37.0183 36.5273 37.1356V56.359C36.5273 56.4514 36.5718 56.9399 36.8788 57.2318C37.1284 57.4693 37.6308 57.6701 37.8283 57.6701H58.3633C58.5264 57.6701 59.0613 57.5019 59.3385 57.1801C59.5865 56.8923 59.6253 56.4706 59.6253 56.3533L59.6539 37.131C59.6538 36.9552 59.6642 36.5439 59.3019 36.2001Z" fill="white" stroke="white" stroke-miterlimit="10" stroke-linecap="round" stroke-linejoin="round"/>
<path d="M48.1264 53.3359C51.7495 53.3359 54.6865 50.3989 54.6865 46.7759C54.6865 43.1529 51.7495 40.2158 48.1264 40.2158C44.5034 40.2158 41.5664 43.1529 41.5664 46.7759C41.5664 50.3989 44.5034 53.3359 48.1264 53.3359Z" fill="black" stroke="white" stroke-miterlimit="10" stroke-linecap="round" stroke-linejoin="round"/>
<path d="M48.1207 33.5233C48.6652 33.5233 49.1066 33.0818 49.1066 32.5373C49.1066 31.9928 48.6652 31.5514 48.1207 31.5514C47.5762 31.5514 47.1348 31.9928 47.1348 32.5373C47.1348 33.0818 47.5762 33.5233 48.1207 33.5233Z" fill="black" stroke="white" stroke-miterlimit="10" stroke-linecap="round" stroke-linejoin="round"/>
<path d="M41.9922 35.8862H54.2982" stroke="black" stroke-width="13" stroke-miterlimit="10" stroke-linecap="round" stroke-linejoin="round"/>
</svg>
