<svg width="65" height="65" viewBox="0 0 65 65" fill="none" xmlns="http://www.w3.org/2000/svg">
<path d="M54.9526 27.3645C54.9526 36.4271 54.9526 45.4901 54.9526 54.553C54.6551 55.13 54.2474 55.5207 53.5376 55.5221C49.9746 55.5288 46.4646 55.972 43.0076 56.8361C39.4559 57.7238 36.0758 59.0527 32.8505 60.7802C32.6166 60.7802 32.3827 60.7802 32.1488 60.7802C31.9073 60.652 31.667 60.5211 31.4236 60.3963C25.2542 57.2312 18.702 55.5994 11.7689 55.5335C10.9671 55.5258 10.3899 55.2868 10.0469 54.5531C10.0469 45.4902 10.0469 36.4271 10.0469 27.3645C10.2575 27.0928 10.4344 26.7846 10.6838 26.5552C14.4021 23.1319 18.7628 21.5874 23.7972 22.3008C27.4436 22.8176 30.4041 24.5359 32.3573 27.7675C32.3924 27.8257 32.437 27.8783 32.5214 27.9944C32.5578 27.9185 32.5732 27.8781 32.5951 27.8417C34.6735 24.3725 37.8652 22.668 41.7654 22.2182C45.5534 21.7813 49.0429 22.7374 52.2026 24.853C53.2386 25.5468 54.2751 26.2661 54.9526 27.3645ZM31.161 57.3311C31.172 57.2048 31.1834 57.135 31.1834 57.0651C31.1842 49.4073 31.1826 41.7495 31.1909 34.0919C31.1912 33.8403 31.0887 33.7368 30.8866 33.6366C25.6683 31.0518 20.1479 29.5782 14.3478 29.1325C13.8021 29.0906 13.254 29.0804 12.6987 29.0551C12.6987 37.0276 12.6987 44.9433 12.6987 52.9034C19.1537 53.1135 25.2974 54.5809 31.161 57.3311ZM52.2966 29.0846C52.2327 29.0711 52.1913 29.0522 52.1515 29.055C51.1173 29.1294 50.0803 29.1793 49.0494 29.2867C43.8137 29.8323 38.8397 31.2828 34.127 33.6325C33.8767 33.7573 33.8094 33.9003 33.8097 34.1663C33.8169 41.7655 33.8154 49.3648 33.8166 56.9643C33.8167 57.0714 33.8335 57.1783 33.8465 57.333C36.7787 55.9466 39.7744 54.8994 42.8756 54.1581C45.974 53.4173 49.1206 53.0141 52.2967 52.8994C52.2966 44.9178 52.2966 37.003 52.2966 29.0846ZM49.8855 26.5514C49.7816 26.46 49.7541 26.4245 49.7178 26.4054C46.3382 24.62 42.8354 24.1608 39.2082 25.5375C36.9524 26.3937 35.2834 27.9128 34.3846 30.2001C34.3356 30.3243 34.2984 30.4532 34.2267 30.6665C39.2472 28.3643 44.412 27.0262 49.8855 26.5514ZM30.7635 30.658C30.7122 30.491 30.6921 30.4118 30.6639 30.3354C29.8909 28.2356 28.4492 26.7304 26.4378 25.8202C22.6492 24.1053 18.9382 24.5019 15.3166 26.3849C15.2544 26.4173 15.1817 26.4296 15.1139 26.4512C20.5981 27.0223 25.7622 28.3711 30.7635 30.658Z" fill="black"/>
<path fill-rule="evenodd" clip-rule="evenodd" d="M54.9526 27.6553C54.2751 26.5569 53.2386 25.8376 52.2026 25.1439C49.0429 23.0282 45.5534 22.0722 41.7654 22.5091C37.8653 22.9588 34.6736 24.6634 32.5951 28.1326C32.5732 28.169 32.5578 28.2093 32.5214 28.2852C32.437 28.1691 32.3924 28.1165 32.3573 28.0584C30.404 24.8268 27.4436 23.1084 23.7972 22.5916C18.7629 21.8782 14.4021 23.4227 10.6838 26.8459C10.4344 27.0755 10.2575 27.3837 10.0469 27.6554C10.0469 23.8255 10.0469 19.9957 10.0469 16.1659C14.7831 16.1659 19.5192 16.1659 24.2553 16.1659C23.0509 16.8891 22.961 17.698 23.9726 18.71C24.7253 19.463 25.4738 20.22 26.2322 20.967C26.8225 21.5482 27.6055 21.5792 28.1479 21.0588C28.7007 20.5286 28.6859 19.7172 28.0967 19.1113C27.5476 18.5468 26.9973 17.9826 26.4244 17.4428C25.9528 16.9985 25.4474 16.5903 24.9569 16.166C27.3541 16.166 29.7516 16.166 32.1488 16.166C31.3912 16.5149 31.1225 17.113 31.1749 17.9293C31.2195 18.6268 31.179 19.3294 31.1855 20.0297C31.1932 20.8403 31.7495 21.4267 32.4993 21.4267C33.249 21.4268 33.8056 20.8411 33.8137 20.0299C33.8207 19.3297 33.78 18.627 33.8245 17.9296C33.8766 17.1135 33.6074 16.5155 32.8505 16.166C35.2478 16.166 37.6452 16.166 40.0425 16.166C39.8518 16.292 39.6351 16.3915 39.475 16.5485C38.5793 17.4264 37.6856 18.3068 36.8154 19.2096C36.3056 19.7386 36.3295 20.5209 36.8198 21.0279C37.3087 21.5331 38.1055 21.587 38.6348 21.0824C39.5635 20.1974 40.4772 19.2944 41.3561 18.36C41.9807 17.6961 41.7651 16.7272 40.9567 16.2977C40.8832 16.2587 40.8149 16.2101 40.7441 16.1659C45.4803 16.1659 50.2164 16.1659 54.9526 16.1659C54.9526 19.9957 54.9526 23.8255 54.9526 27.6553Z" fill="white"/>
<path fill-rule="evenodd" clip-rule="evenodd" d="M10.0469 54.8439C10.3899 55.5777 10.9671 55.8167 11.7689 55.8243C18.702 55.8903 25.2542 57.5219 31.4236 60.6871C31.6671 60.8119 31.9073 60.9429 32.1488 61.071C24.7814 61.071 17.4143 61.071 10.0469 61.071C10.0469 58.9954 10.0469 56.9197 10.0469 54.8439Z" fill="white"/>
<path fill-rule="evenodd" clip-rule="evenodd" d="M32.8516 61.0711C36.0769 59.3435 39.4569 58.0148 43.0086 57.127C46.4656 56.2629 49.9755 55.8196 53.5386 55.813C54.2485 55.8116 54.6561 55.4209 54.9536 54.8439C54.9536 56.9196 54.9536 58.9953 54.9536 61.0711C47.5863 61.0711 40.2189 61.0711 32.8516 61.0711Z" fill="white"/>
<path fill-rule="evenodd" clip-rule="evenodd" d="M24.9572 16.1658C25.4476 16.5901 25.953 16.9984 26.4246 17.4427C26.9975 17.9825 27.5478 18.5467 28.097 19.1112C28.6861 19.7172 28.7009 20.5285 28.1482 21.0587C27.6057 21.5791 26.8226 21.5481 26.2324 20.9669C25.4739 20.2199 24.7255 19.4629 23.9728 18.7099C22.9613 17.6979 23.0512 16.8891 24.2556 16.1658C24.4894 16.1658 24.7232 16.1658 24.9572 16.1658Z" fill="black"/>
<path fill-rule="evenodd" clip-rule="evenodd" d="M40.745 16.1659C40.8158 16.2101 40.8841 16.2587 40.9575 16.2977C41.7659 16.7272 41.9815 17.6961 41.357 18.36C40.4781 19.2944 39.5644 20.1974 38.6357 21.0824C38.1064 21.587 37.3094 21.5331 36.8206 21.0279C36.3304 20.5209 36.3065 19.7386 36.8163 19.2096C37.6865 18.3068 38.5802 17.4264 39.4758 16.5485C39.636 16.3914 39.8527 16.292 40.0434 16.166C40.2772 16.1659 40.5112 16.1659 40.745 16.1659Z" fill="black"/>
<path fill-rule="evenodd" clip-rule="evenodd" d="M32.8499 16.1659C33.6068 16.5154 33.876 17.1134 33.8238 17.9295C33.7794 18.627 33.8201 19.3297 33.8131 20.0298C33.805 20.841 33.2484 21.4267 32.4987 21.4266C31.7489 21.4266 31.1925 20.8402 31.1849 20.0296C31.1784 19.3293 31.2189 18.6267 31.1743 17.9292C31.1219 17.1128 31.3906 16.5148 32.1482 16.1659C32.3821 16.1659 32.6161 16.1659 32.8499 16.1659Z" fill="black"/>
<path fill-rule="evenodd" clip-rule="evenodd" d="M31.1616 57.4586C25.2979 54.6422 19.1542 53.1394 12.6992 52.9244C12.6992 44.7725 12.6992 36.6661 12.6992 28.5016C13.2546 28.5274 13.8027 28.5379 14.3483 28.5809C20.1484 29.0372 25.6687 30.5464 30.8871 33.1936C31.0893 33.2961 31.1917 33.4021 31.1914 33.6599C31.1832 41.5018 31.1847 49.3442 31.1839 57.1865C31.184 57.2578 31.1725 57.3293 31.1616 57.4586Z" fill="black"/>
<path fill-rule="evenodd" clip-rule="evenodd" d="M49.8855 26.8423C44.412 27.3172 39.2471 28.6553 34.2266 30.9575C34.2983 30.7442 34.3356 30.6154 34.3845 30.4911C35.2834 28.2038 36.9524 26.6847 39.2081 25.8284C42.8353 24.4517 46.3382 24.9108 49.7177 26.6963C49.7541 26.7153 49.7816 26.7509 49.8855 26.8423Z" fill="white"/>
<path fill-rule="evenodd" clip-rule="evenodd" d="M30.7628 30.9489C25.7614 28.662 20.5975 27.3132 15.1133 26.742C15.1812 26.7204 15.2538 26.7081 15.316 26.6757C18.9376 24.7928 22.6486 24.3961 26.4372 26.111C28.4486 27.0214 29.8903 28.5265 30.6633 30.6262C30.6915 30.7026 30.7117 30.7818 30.7628 30.9489Z" fill="white"/>
<path d="M33.2477 57.5446C39.3057 54.7184 45.6531 53.2104 52.322 52.9946V28.4872C51.7483 28.5132 51.1821 28.5236 50.6183 28.5668C44.626 29.0248 38.9226 30.5391 33.5313 33.1954C33.3223 33.2983 33.2166 33.4046 33.2168 33.6632C33.2252 41.5325 33.2237 49.402 33.2245 57.2713C33.2244 57.3431 33.2363 57.4147 33.2477 57.5446Z" fill="black"/>
<path d="M32.4844 34.6553V57.5858" stroke="white" stroke-width="2" stroke-miterlimit="10" stroke-linecap="round"/>
</svg>
