<svg width="65" height="65" viewBox="0 0 65 65" fill="none" xmlns="http://www.w3.org/2000/svg">
<path fill-rule="evenodd" clip-rule="evenodd" d="M30.9536 54.5891C30.9558 54.453 30.9588 54.3168 30.96 54.1807C30.9611 54.0498 30.9602 53.9189 30.9602 53.7732C31.5143 53.7732 32.0567 53.7732 32.6068 53.7732C32.6068 50.9171 32.6068 48.076 32.6068 45.2172C32.1385 45.5198 31.6811 45.8153 31.2123 46.1183C31.1369 46.0141 31.0645 45.914 30.9832 45.8016C30.7944 45.9395 30.6083 46.0751 30.4128 46.2178C30.2506 46.0089 30.0864 45.7972 29.916 45.5779C30.1087 45.4324 30.2958 45.2911 30.487 45.1468C30.4076 45.0339 30.3361 44.9324 30.2582 44.8218C30.4141 44.6781 30.5614 44.5393 30.7119 44.4045C30.9318 44.2077 31.1542 44.014 31.3752 43.8185C31.8405 43.4072 32.3055 42.9956 32.7711 42.5847C32.7904 42.5676 32.8174 42.5598 32.8364 42.5424C33.0009 42.3913 33.1785 42.2748 33.2105 41.9954C33.287 41.3289 33.8955 40.7666 34.5429 40.6562C34.5762 40.6505 34.6083 40.6373 34.6409 40.6277C34.7794 40.6277 34.9179 40.6277 35.0564 40.6277C35.213 40.6768 35.3744 40.7136 35.5247 40.7789C35.6582 40.8369 35.7907 40.9113 35.9044 41.0046C36.6039 41.5796 36.7095 42.4638 36.3328 43.1447C35.996 43.7534 35.4099 44.1035 34.6486 44.0197C34.5353 44.0073 34.445 44.0182 34.3461 44.0849C34.0635 44.2756 33.7717 44.4511 33.4867 44.6379C33.4543 44.6591 33.4407 44.7134 33.4212 44.7539C33.416 44.7647 33.4203 44.7808 33.4203 44.7943C33.4203 47.7473 33.4203 50.7004 33.4203 53.6533C33.4203 53.685 33.4203 53.7165 33.4203 53.7632C33.9765 53.7632 34.5278 53.7632 35.1085 53.7632C35.1085 54.0482 35.1085 54.3186 35.1085 54.5889C33.7236 54.5891 32.3386 54.5891 30.9536 54.5891Z" fill="black"/>
<path fill-rule="evenodd" clip-rule="evenodd" d="M35.7309 42.3333C35.7317 42.0726 35.6605 41.9072 35.4465 41.6941C34.9372 41.1868 34.1439 41.5218 34.0035 42.0991C33.9763 42.2111 33.9807 42.305 34.057 42.4012C34.2468 42.6406 34.4253 42.89 34.6131 43.1313C34.6422 43.1688 34.6944 43.2002 34.74 43.2081C35.2201 43.2898 35.749 42.8478 35.7309 42.3333Z" fill="black"/>
<path fill-rule="evenodd" clip-rule="evenodd" d="M33.5232 43.0159C32.7912 43.6636 32.0692 44.3024 31.3457 44.9426C31.4186 45.0544 31.4818 44.975 31.5345 44.9409C32.0957 44.577 32.6547 44.2094 33.2148 43.8434C33.4153 43.7124 33.6171 43.5835 33.8318 43.4447C33.7266 43.2984 33.6291 43.163 33.5232 43.0159Z" fill="black"/>
<path fill-rule="evenodd" clip-rule="evenodd" d="M35.7309 42.3334C35.7489 42.8478 35.2201 43.2899 34.7401 43.2081C34.6944 43.2002 34.6422 43.1688 34.6131 43.1313C34.4253 42.8901 34.2468 42.6406 34.057 42.4011C33.9808 42.305 33.9762 42.2111 34.0035 42.0991C34.1439 41.5218 34.9373 41.1868 35.4466 41.6941C35.6605 41.9073 35.7317 42.0727 35.7309 42.3334Z" fill="black"/>
<path fill-rule="evenodd" clip-rule="evenodd" d="M33.5232 43.0159C33.6291 43.163 33.7266 43.2984 33.8318 43.4447C33.617 43.5833 33.4153 43.7123 33.2148 43.8434C32.6547 44.2093 32.0957 44.577 31.5345 44.9408C31.4818 44.9749 31.4185 45.0543 31.3457 44.9425C32.0692 44.3024 32.7912 43.6636 33.5232 43.0159Z" fill="white"/>
<path d="M57.7999 53.5579H8.72852V59.5198H57.7999V53.5579Z" fill="black"/>
<path d="M12.3971 24.589H11.0977V53.5579H12.3971V24.589Z" fill="black"/>
<path d="M18.1295 24.589H16.8301V53.5579H18.1295V24.589Z" fill="black"/>
<path d="M49.4693 24.589H48.1699V53.5579H49.4693V24.589Z" fill="black"/>
<path d="M55.3541 24.589H54.0547V53.5579H55.3541V24.589Z" fill="black"/>
<path d="M18.0629 27.1269L17.1504 26.2144L11.4351 31.9297L12.3476 32.8422L18.0629 27.1269Z" fill="black"/>
<path d="M16.7809 32.8427L17.6934 31.9302L11.978 26.2148L11.0655 27.1273L16.7809 32.8427Z" fill="black"/>
<path d="M55.2563 26.7861L54.332 25.8618L48.5431 31.6507L49.4674 32.575L55.2563 26.7861Z" fill="black"/>
<path d="M53.9586 32.5768L54.8828 31.6526L49.0939 25.8636L48.1696 26.7878L53.9586 32.5768Z" fill="black"/>
<path d="M55.2562 36.1233L54.332 35.1991L48.5431 40.988L49.4673 41.9123L55.2562 36.1233Z" fill="black"/>
<path d="M53.9586 41.9127L54.8828 40.9885L49.0939 35.1996L48.1696 36.1238L53.9586 41.9127Z" fill="black"/>
<path d="M55.2562 45.3358L54.332 44.4116L48.5431 50.2006L49.4673 51.1248L55.2562 45.3358Z" fill="black"/>
<path d="M53.9586 51.1255L54.8828 50.2013L49.0939 44.4123L48.1697 45.3366L53.9586 51.1255Z" fill="black"/>
<path d="M18.2484 45.441L17.3359 44.5286L11.6207 50.2438L12.5331 51.1563L18.2484 45.441Z" fill="black"/>
<path d="M16.9664 51.1556L17.8789 50.2432L12.1636 44.5278L11.2511 45.4403L16.9664 51.1556Z" fill="black"/>
<path d="M18.0609 36.3449L17.1484 35.4324L11.4331 41.1477L12.3456 42.0602L18.0609 36.3449Z" fill="black"/>
<path d="M16.7809 42.0619L17.6934 41.1494L11.978 35.4341L11.0655 36.3466L16.7809 42.0619Z" fill="black"/>
<path d="M57.1124 18.9327H8.04102V24.8947H57.1124V18.9327Z" fill="black"/>
<path d="M44.4231 45.7615H38.3848V53.5579H44.4231V45.7615Z" fill="black"/>
<path d="M27.8372 45.9144H21.7988V53.7108H27.8372V45.9144Z" fill="black"/>
<path d="M41.3973 51.4827C42.3848 51.4827 43.1853 50.6822 43.1853 49.6947C43.1853 48.7072 42.3848 47.9067 41.3973 47.9067C40.4099 47.9067 39.6094 48.7072 39.6094 49.6947C39.6094 50.6822 40.4099 51.4827 41.3973 51.4827Z" fill="white"/>
<path d="M24.8114 51.4827C25.7989 51.4827 26.5994 50.6822 26.5994 49.6947C26.5994 48.7072 25.7989 47.9067 24.8114 47.9067C23.8239 47.9067 23.0234 48.7072 23.0234 49.6947C23.0234 50.6822 23.8239 51.4827 24.8114 51.4827Z" fill="white"/>
</svg>
