<svg width="48" height="48" viewBox="0 0 48 48" fill="none" xmlns="http://www.w3.org/2000/svg">
<path d="M24 4C20.287 4 16.726 5.475 14.1005 8.1005C11.475 10.726 10 14.287 10 18C10 22.76 12.38 26.94 16 29.48V34C16 34.5304 16.2107 35.0391 16.5858 35.4142C16.9609 35.7893 17.4696 36 18 36H30C30.5304 36 31.0391 35.7893 31.4142 35.4142C31.7893 35.0391 32 34.5304 32 34V29.48C35.62 26.94 38 22.76 38 18C38 14.287 36.525 10.726 33.8995 8.1005C31.274 5.475 27.713 4 24 4ZM18 42C18 42.5304 18.2107 43.0391 18.5858 43.4142C18.9609 43.7893 19.4696 44 20 44H28C28.5304 44 29.0391 43.7893 29.4142 43.4142C29.7893 43.0391 30 42.5304 30 42V40H18V42Z" fill="#333333"/>
</svg>
