<svg width="48" height="48" viewBox="0 0 48 48" fill="none" xmlns="http://www.w3.org/2000/svg">
<path fill-rule="evenodd" clip-rule="evenodd" d="M28.5 5C28.5 4.86739 28.4473 4.74021 28.3536 4.64645C28.2598 4.55268 28.1326 4.5 28 4.5L14 4.5C12.5413 4.5 11.1424 5.07946 10.1109 6.11091C9.07946 7.14236 8.5 8.54131 8.5 10L8.5 38C8.5 39.4587 9.07946 40.8576 10.1109 41.8891C11.1424 42.9205 12.5413 43.5 14 43.5L34 43.5C35.4587 43.5 36.8576 42.9205 37.8891 41.8891C38.9205 40.8576 39.5 39.4587 39.5 38L39.5 18.294C39.5 18.1614 39.4473 18.0342 39.3536 17.9404C39.2598 17.8467 39.1326 17.794 39 17.794L30 17.794C29.6022 17.794 29.2206 17.636 28.9393 17.3547C28.658 17.0734 28.5 16.6918 28.5 16.294L28.5 5ZM30 24.5C30.3978 24.5 30.7794 24.658 31.0607 24.9393C31.342 25.2206 31.5 25.6022 31.5 26C31.5 26.3978 31.342 26.7794 31.0607 27.0607C30.7794 27.342 30.3978 27.5 30 27.5L18 27.5C17.6022 27.5 17.2206 27.342 16.9393 27.0607C16.658 26.7794 16.5 26.3978 16.5 26C16.5 25.6022 16.658 25.2206 16.9393 24.9393C17.2206 24.658 17.6022 24.5 18 24.5L30 24.5ZM30 32.5C30.3978 32.5 30.7794 32.658 31.0607 32.9393C31.342 33.2206 31.5 33.6022 31.5 34C31.5 34.3978 31.342 34.7794 31.0607 35.0607C30.7794 35.342 30.3978 35.5 30 35.5H18C17.6022 35.5 17.2206 35.342 16.9393 35.0607C16.658 34.7794 16.5 34.3978 16.5 34C16.5 33.6022 16.658 33.2206 16.9393 32.9393C17.2206 32.658 17.6022 32.5 18 32.5H30Z" fill="#333333"/>
<path d="M31.5 5.64889C31.5 5.28089 31.886 5.04689 32.172 5.27689C32.414 5.47289 32.632 5.70089 32.818 5.96089L38.844 14.3549C38.98 14.5469 38.832 14.7949 38.596 14.7949L32 14.7949C31.8674 14.7949 31.7402 14.7422 31.6464 14.6484C31.5527 14.5547 31.5 14.4275 31.5 14.2949V5.64889Z" fill="#333333"/>
</svg>
