<svg width="48" height="48" viewBox="0 0 48 48" fill="none" xmlns="http://www.w3.org/2000/svg">
<path d="M34.4993 6L34.4993 27.2578C33.6223 27.5682 32.863 28.1428 32.326 28.9025C31.789 29.6622 31.5006 30.5697 31.5006 31.5C31.5006 32.4303 31.789 33.3378 32.326 34.0975C32.863 34.8572 33.6223 35.4318 34.4993 35.7422L34.4993 42C34.4993 42.3978 34.6574 42.7794 34.9387 43.0607C35.22 43.342 35.6015 43.5 35.9993 43.5C36.3972 43.5 36.7787 43.342 37.06 43.0607C37.3413 42.7794 37.4993 42.3978 37.4993 42L37.4993 35.7422C38.3764 35.4318 39.1357 34.8572 39.6727 34.0975C40.2097 33.3378 40.498 32.4303 40.498 31.5C40.498 30.5697 40.2097 29.6622 39.6727 28.9025C39.1357 28.1428 38.3764 27.5682 37.4993 27.2578L37.4993 6C37.4993 5.60218 37.3413 5.22064 37.06 4.93934C36.7787 4.65804 36.3972 4.5 35.9993 4.5C35.6015 4.5 35.22 4.65803 34.9387 4.93934C34.6574 5.22064 34.4993 5.60217 34.4993 6ZM13.4993 42L13.4993 35.7422C14.3764 35.4318 15.1357 34.8572 15.6727 34.0975C16.2097 33.3378 16.498 32.4303 16.498 31.5C16.498 30.5697 16.2097 29.6622 15.6727 28.9025C15.1357 28.1428 14.3764 27.5682 13.4993 27.2578L13.4993 6C13.4993 5.60217 13.3413 5.22064 13.06 4.93934C12.7787 4.65803 12.3972 4.5 11.9993 4.5C11.6015 4.5 11.22 4.65803 10.9387 4.93934C10.6574 5.22064 10.4993 5.60217 10.4993 6L10.4993 27.2578C9.62228 27.5682 8.863 28.1428 8.32598 28.9025C7.78896 29.6622 7.50061 30.5697 7.50061 31.5C7.50061 32.4303 7.78896 33.3378 8.32598 34.0975C8.863 34.8572 9.62228 35.4318 10.4993 35.7422L10.4993 42C10.4993 42.3978 10.6574 42.7794 10.9387 43.0607C11.22 43.342 11.6015 43.5 11.9993 43.5C12.3972 43.5 12.7787 43.342 13.06 43.0607C13.3413 42.7794 13.4993 42.3978 13.4993 42ZM25.4993 42L25.4993 20.7422C26.3764 20.4318 27.1357 19.8572 27.6727 19.0975C28.2097 18.3378 28.498 17.4303 28.498 16.5C28.498 15.5697 28.2097 14.6622 27.6727 13.9025C27.1357 13.1428 26.3764 12.5682 25.4993 12.2578L25.4993 6C25.4993 5.60217 25.3413 5.22064 25.06 4.93934C24.7787 4.65803 24.3972 4.5 23.9993 4.5C23.6015 4.5 23.22 4.65803 22.9387 4.93934C22.6574 5.22064 22.4993 5.60217 22.4993 6L22.4993 12.2578C21.6223 12.5682 20.863 13.1428 20.326 13.9025C19.789 14.6622 19.5006 15.5697 19.5006 16.5C19.5006 17.4303 19.789 18.3378 20.326 19.0975C20.863 19.8572 21.6223 20.4318 22.4993 20.7422L22.4993 42C22.4993 42.3978 22.6574 42.7794 22.9387 43.0607C23.22 43.342 23.6015 43.5 23.9993 43.5C24.3972 43.5 24.7787 43.342 25.06 43.0607C25.3413 42.7794 25.4993 42.3978 25.4993 42Z" fill="#333333"/>
</svg>
