<svg width="23" height="23" viewBox="0 0 23 23" fill="none" xmlns="http://www.w3.org/2000/svg">
<path d="M11.7338 3.8335C12.2455 3.83637 13.5259 3.84883 14.8867 3.90345L15.3697 3.92454C16.7392 3.98875 18.1077 4.09991 18.7871 4.2887C19.6928 4.54362 20.4038 5.28537 20.6444 6.22645C21.0277 7.72145 21.0756 10.6367 21.0814 11.343L21.0823 11.4887V11.6554C21.0756 12.3617 21.0277 15.2779 20.6444 16.772C20.401 17.7159 19.6889 18.4586 18.7871 18.7097C18.1077 18.8985 16.7392 19.0097 15.3697 19.0739L14.8867 19.0959C13.5259 19.1496 12.2455 19.163 11.7338 19.1649L11.5086 19.1659H11.2642C10.1813 19.1592 5.65221 19.1103 4.21088 18.7097C3.30621 18.4548 2.59417 17.713 2.35363 16.772C1.97029 15.277 1.92238 12.3617 1.91663 11.6554V11.343C1.92238 10.6367 1.97029 7.7205 2.35363 6.22645C2.59704 5.2825 3.30908 4.53979 4.21183 4.28966C5.65221 3.88812 10.1823 3.83925 11.2652 3.8335H11.7338ZM9.58233 8.146V14.8543L15.3323 11.5002L9.58233 8.146Z" fill="#C0C0C0"/>
</svg>
