<svg width="164" height="59" viewBox="0 0 164 59" fill="none" xmlns="http://www.w3.org/2000/svg">
<path fill-rule="evenodd" clip-rule="evenodd" d="M7.69434 14.766H15.5033V31.304C15.9963 32.525 17.1203 33.285 18.8993 33.596H37.0753V38.641H15.0443C14.3683 38.641 13.6073 38.438 12.7513 38.041C11.8943 37.645 11.0913 37.13 10.3623 36.487C9.62434 35.844 8.99134 35.137 8.47734 34.367C7.95234 33.606 7.69434 32.888 7.69434 32.214V14.766ZM77.5623 38.641H41.7573V33.596H69.9373V28.905H51.3953C49.1253 28.295 47.3783 27.373 46.1583 26.152C45.3023 25.36 44.4873 24.47 43.7273 23.485C42.9563 22.51 42.2703 21.504 41.6593 20.454C41.0503 19.415 40.5563 18.408 40.1923 17.433C39.8283 16.448 39.6353 15.559 39.6353 14.766H48.7283C49.4033 16.48 49.9503 17.84 50.3773 18.847C50.8063 19.865 51.1483 20.518 51.3953 20.828C51.6963 21.128 52.0063 21.481 52.3063 21.878C52.6173 22.274 52.9383 22.682 53.2703 23.077C53.6133 23.473 53.9663 23.795 54.3313 24.041C54.6953 24.288 55.0603 24.405 55.4353 24.405H70.0343V14.765H77.5633L77.5623 38.641ZM119.25 34.324V14.766H111.538V25.873C108.968 22.874 105.722 20.518 101.802 18.804C97.8933 17.09 93.6613 15.741 89.1423 14.766H81.3333V38.641H88.9493V24.127C90.2343 24.127 91.4443 24.299 92.5803 24.63C93.7053 24.974 94.7973 25.326 95.8363 25.691L96.4793 25.97C97.5833 26.398 98.7923 26.976 100.11 27.715C101.417 28.444 102.841 29.301 104.373 30.286C107.255 32.428 109.696 35.181 111.722 38.544H119.251L119.25 34.324ZM136.045 27.072L122.827 14.765H135.038L143.297 22.113L152.016 14.765H161.849L148.438 25.786L163.133 38.64H149.359L141.186 31.474L132.553 38.64H122.826L136.045 27.072Z" fill="black"/>
<path fill-rule="evenodd" clip-rule="evenodd" d="M113.749 43.896V50.434C113.749 50.898 113.981 51.13 114.448 51.13C114.915 51.13 115.149 50.892 115.149 50.415V49.25H116.792C118.192 49.25 118.892 48.534 118.892 47.102V45.289C118.892 43.886 118.19 43.183 116.783 43.183H114.441C113.98 43.182 113.749 43.421 113.749 43.896ZM116.782 44.592C117.255 44.592 117.492 44.818 117.492 45.269V47.131C117.492 47.61 117.255 47.85 116.782 47.85H115.149V44.592H116.782ZM124.493 45.049V43.888C124.493 43.427 124.259 43.197 123.792 43.197L121.925 43.192C120.525 43.192 119.825 43.907 119.825 45.339V48.559C119.825 49.026 120.057 49.26 120.524 49.26C120.991 49.26 121.225 49.022 121.225 48.55V45.31C121.225 44.832 121.462 44.592 121.939 44.592H123.091V45.049C123.091 45.522 123.329 45.76 123.805 45.76C124.264 45.76 124.493 45.521 124.493 45.049ZM125.431 45.292V47.15C125.431 48.549 126.126 49.25 127.518 49.25H128.474C129.874 49.25 130.574 48.534 130.574 47.102V45.289C130.574 43.886 129.872 43.183 128.465 43.183H127.536C126.132 43.182 125.431 43.886 125.431 45.292ZM128.464 44.592C128.938 44.592 129.175 44.818 129.175 45.269V47.131C129.175 47.61 128.938 47.85 128.464 47.85H127.522C127.061 47.85 126.832 47.611 126.832 47.131V45.288C126.832 44.824 127.061 44.592 127.522 44.592H128.464Z" fill="black"/>
<path fill-rule="evenodd" clip-rule="evenodd" d="M142.21 48.531V43.868C142.21 43.408 141.976 43.177 141.509 43.177L139.185 43.172C137.785 43.172 137.085 43.887 137.085 45.319V48.539C137.085 49.006 137.317 49.24 137.784 49.24C138.251 49.24 138.485 49.003 138.485 48.531L138.49 47.363L140.809 47.368V48.531C140.809 49.003 141.046 49.24 141.523 49.24C141.98 49.24 142.21 49.003 142.21 48.531ZM138.485 45.958V45.291C138.485 44.813 138.722 44.572 139.198 44.572H140.809V45.958H138.485ZM148.303 43.868C148.303 43.394 148.075 43.158 147.618 43.158C147.141 43.158 146.904 43.394 146.904 43.868V47.825H145.274C144.798 47.825 144.561 47.586 144.561 47.106V43.868C144.561 43.394 144.327 43.158 143.86 43.158C143.393 43.158 143.16 43.391 143.16 43.858V47.078C143.16 48.511 143.86 49.225 145.261 49.225L147.604 49.23C148.071 49.23 148.303 48.999 148.303 48.539V43.868ZM154.379 48.531V41.987C154.379 41.523 154.147 41.292 153.68 41.292C153.213 41.292 152.981 41.529 152.981 42.006V43.172H151.337C149.937 43.172 149.236 43.887 149.236 45.319V47.138C149.236 48.538 149.94 49.24 151.35 49.24H153.694C154.151 49.24 154.379 49.003 154.379 48.531ZM151.346 47.835C150.873 47.835 150.638 47.608 150.638 47.158V45.291C150.638 44.813 150.874 44.572 151.351 44.572H152.981V47.835H151.346ZM157.422 48.521V43.868C157.422 43.408 157.19 43.172 156.723 43.162L156.022 43.172C155.555 43.182 155.323 43.422 155.323 43.896C155.317 44.348 155.55 44.573 156.022 44.573V48.522C156.022 48.996 156.259 49.231 156.733 49.231C157.192 49.23 157.422 48.995 157.422 48.521ZM156.685 41.3C156.801 41.3 156.913 41.33 157.024 41.39C157.134 41.449 157.22 41.535 157.283 41.646C157.345 41.759 157.377 41.875 157.377 41.997C157.377 42.115 157.347 42.23 157.286 42.34C157.225 42.451 157.14 42.536 157.029 42.597C156.918 42.659 156.804 42.689 156.685 42.689C156.564 42.689 156.449 42.659 156.34 42.597C156.231 42.536 156.145 42.451 156.082 42.34C156.02 42.231 155.989 42.115 155.989 41.997C155.989 41.876 156.02 41.76 156.082 41.646C156.144 41.535 156.232 41.449 156.342 41.39C156.451 41.33 156.566 41.3 156.685 41.3ZM158.36 45.273V47.13C158.36 48.53 159.054 49.23 160.447 49.23H161.403C162.802 49.23 163.503 48.515 163.503 47.083V45.269C163.503 43.866 162.8 43.163 161.394 43.163H160.465C159.062 43.162 158.36 43.867 158.36 45.273ZM161.394 44.572C161.868 44.572 162.104 44.799 162.104 45.25V47.111C162.104 47.59 161.868 47.83 161.394 47.83H160.451C159.991 47.83 159.762 47.591 159.762 47.111V45.268C159.762 44.804 159.991 44.572 160.451 44.572H161.394Z" fill="black"/>
<path d="M135.689 45.683H131.979V47.095H135.689V45.683Z" fill="black"/>
<path fill-rule="evenodd" clip-rule="evenodd" d="M1.46669 45.672H110.6V47.083H0.0546875V45.685V45.672V9.28V7.869H163.945V9.28H1.46669V45.672Z" fill="black"/>
</svg>
