<svg width="37" height="37" viewBox="0 0 37 37" fill="none" xmlns="http://www.w3.org/2000/svg">
<path d="M2.3125 6.9375H4.625V30.0625H2.3125V6.9375ZM6.9375 4.625H9.25V32.375H6.9375V4.625ZM16.1875 25.4375H30.0625V27.75H16.1875V25.4375ZM16.1875 18.5H30.0625V20.8125H16.1875V18.5Z" fill="black"/>
<path d="M34.3406 10.7531L26.2469 2.65937C26.0156 2.42812 25.7844 2.3125 25.4375 2.3125H13.875C12.6031 2.3125 11.5625 3.35312 11.5625 4.625V32.375C11.5625 33.6469 12.6031 34.6875 13.875 34.6875H32.375C33.6469 34.6875 34.6875 33.6469 34.6875 32.375V11.5625C34.6875 11.2156 34.5719 10.9844 34.3406 10.7531ZM25.4375 5.0875L31.9125 11.5625H25.4375V5.0875ZM32.375 32.375H13.875V4.625H23.125V11.5625C23.125 12.8344 24.1656 13.875 25.4375 13.875H32.375V32.375Z" fill="black"/>
</svg>
