<svg width="37" height="37" viewBox="0 0 37 37" fill="none" xmlns="http://www.w3.org/2000/svg">
<g clip-path="url(#clip0_8_1004)">
<path fill-rule="evenodd" clip-rule="evenodd" d="M20.8096 2.08887H18.4987C16.4491 2.08914 14.4577 2.7702 12.8372 4.02508C11.2168 5.27996 10.059 7.03757 9.54588 9.02183H9.2547C6.80305 9.02183 4.45181 9.99575 2.71823 11.7293C0.984657 13.4629 0.0107422 15.8141 0.0107422 18.2658C0.0107422 20.7174 0.984657 23.0687 2.71823 24.8023C4.45181 26.5358 6.80305 27.5097 9.2547 27.5097H27.7426C30.0156 27.5131 32.2101 26.6788 33.9068 25.1664C35.6036 23.654 36.6837 21.5695 36.9407 19.3111C37.1978 17.0527 36.6137 14.7788 35.3002 12.9238C33.9867 11.0688 32.0358 9.76278 29.8202 9.25524C29.3495 7.21809 28.2024 5.40054 26.566 4.09907C24.9296 2.79759 22.9005 2.089 20.8096 2.08887ZM11.3369 11.3328L11.7829 9.59958C12.168 8.11129 13.0365 6.79306 14.2521 5.85191C15.4676 4.91076 16.9613 4.4 18.4987 4.39986H20.8096C24.0566 4.39986 26.8506 6.65307 27.567 9.7729L27.8905 11.1826L29.3002 11.5085C30.9573 11.8938 32.415 12.8748 33.3959 14.2649C34.3768 15.655 34.8125 17.3571 34.6202 19.0475C34.4279 20.7379 33.6209 22.2986 32.3528 23.4328C31.0847 24.567 29.4439 25.1955 27.7426 25.1988H9.2547C7.41596 25.1988 5.65253 24.4683 4.35235 23.1681C3.05217 21.868 2.32173 20.1045 2.32173 18.2658C2.32173 16.4271 3.05217 14.6636 4.35235 13.3634C5.65253 12.0633 7.41596 11.3328 9.2547 11.3328H11.3369Z" fill="black"/>
<path d="M18.499 18.2658C18.499 17.9594 18.6208 17.6655 18.8375 17.4488C19.0542 17.2321 19.3481 17.1104 19.6545 17.1104C19.961 17.1104 20.2549 17.2321 20.4716 17.4488C20.6883 17.6655 20.81 17.9594 20.81 18.2658V35.5983C20.81 35.9047 20.6883 36.1986 20.4716 36.4153C20.2549 36.632 19.961 36.7538 19.6545 36.7538C19.3481 36.7538 19.0542 36.632 18.8375 36.4153C18.6208 36.1986 18.499 35.9047 18.499 35.5983V18.2658Z" fill="black"/>
<path d="M24.7105 30.0756C24.951 29.9012 25.2493 29.8261 25.5437 29.8659C25.838 29.9056 26.1058 30.0572 26.2913 30.2891C26.4769 30.5211 26.566 30.8156 26.5401 31.1114C26.5143 31.4073 26.3755 31.6819 26.1526 31.8782L20.3751 36.5002C20.2578 36.6035 20.1207 36.6819 19.9722 36.7307C19.8237 36.7795 19.6668 36.7977 19.5111 36.7841C19.3553 36.7705 19.204 36.7254 19.0662 36.6516C18.9283 36.5778 18.8069 36.4769 18.7093 36.3548C18.6116 36.2327 18.5397 36.0921 18.498 35.9414C18.4563 35.7908 18.4455 35.6332 18.4665 35.4783C18.4874 35.3234 18.5395 35.1743 18.6197 35.0401C18.6999 34.9059 18.8065 34.7894 18.9331 34.6976L24.7105 30.0756Z" fill="black"/>
<path d="M13.1556 31.8782C12.9327 31.6819 12.7939 31.4073 12.7681 31.1114C12.7422 30.8156 12.8313 30.5211 13.0169 30.2891C13.2024 30.0572 13.4702 29.9056 13.7645 29.8659C14.0589 29.8261 14.3572 29.9012 14.5976 30.0756L20.3751 34.6976C20.5017 34.7894 20.6083 34.9059 20.6885 35.0401C20.7687 35.1743 20.8208 35.3234 20.8417 35.4783C20.8627 35.6332 20.8519 35.7908 20.8102 35.9414C20.7685 36.0921 20.6966 36.2327 20.5989 36.3548C20.5013 36.4769 20.3799 36.5778 20.242 36.6516C20.1042 36.7254 19.9529 36.7705 19.7971 36.7841C19.6414 36.7977 19.4845 36.7795 19.336 36.7307C19.1875 36.6819 19.0504 36.6035 18.9331 36.5002L13.1556 31.8782Z" fill="black"/>
</g>
<defs>
<clipPath id="clip0_8_1004">
<rect width="37" height="37" fill="white"/>
</clipPath>
</defs>
</svg>
